<svg width="148" height="65" viewBox="0 0 148 65" fill="none" xmlns="http://www.w3.org/2000/svg">
<path d="M0 11.0755V0.680176H44.9122V11.0755C43.8565 10.0193 42.6008 8.95199 41.145 7.87354C39.6892 6.79509 38.1557 5.82226 36.5554 4.96062C34.9496 4.09341 33.3272 3.36518 31.6769 2.77592C30.0322 2.18667 28.4876 1.82533 27.054 1.69748V64.0585H17.8693V1.69192C16.4358 1.81977 14.8911 2.17555 13.2464 2.77036C11.6017 3.35962 9.9737 4.09341 8.36791 4.95506C6.76212 5.82226 5.23411 6.79509 3.77834 7.86798C2.32257 8.94087 1.06683 10.0138 0.0111128 11.07L0 11.0755Z" fill="#FBFFEE"/>
<path d="M51.2461 0.680176H60.4308V32.3665H86.9069V0.680176H96.0916V64.0529H86.9069V33.3783H60.4308V64.0529H51.2461V0.680176Z" fill="#FBFFEE"/>
<path d="M118.323 30.7211C120.435 30.7211 122.346 30.9546 124.057 31.416C125.769 31.883 127.363 32.3888 128.841 32.9392C130.319 33.4895 131.753 33.9954 133.148 34.4623C134.542 34.9293 135.976 35.1572 137.454 35.1572C138.171 35.1572 138.815 34.996 139.387 34.6847C139.96 34.3678 140.243 33.8509 140.243 33.1337C140.243 32.2054 139.643 31.3715 138.437 30.6322C137.231 29.8928 135.742 29.2369 133.97 28.6699C132.197 28.1028 130.286 27.5803 128.236 27.1189C126.185 26.6519 124.318 26.2128 122.629 25.7903C120.39 25.2399 118.195 24.6785 116.039 24.1115C113.884 23.5444 111.956 22.794 110.244 21.8601C108.533 20.9317 107.16 19.7254 106.127 18.2467C105.093 16.768 104.577 14.8668 104.577 12.5432C104.577 11.5703 104.86 10.3807 105.432 8.96315C106.005 7.54561 107.077 6.17253 108.661 4.84393C110.244 3.51532 112.45 2.38128 115.278 1.45293C118.106 0.524574 121.801 0.0576172 126.363 0.0576172C128.008 0.0576172 129.858 0.129884 131.903 0.279978C133.953 0.430071 135.987 0.669109 138.015 1.00821C140.043 1.34731 141.921 1.78091 143.655 2.30902C145.388 2.83712 146.738 3.5042 147.711 4.3047L145.116 13.8106C144.188 13.138 142.993 12.5098 141.538 11.9428C140.082 11.3702 138.454 10.8643 136.659 10.4196C134.864 9.97489 132.964 9.63024 130.958 9.37452C128.952 9.11881 126.936 8.99651 124.907 8.99651C120.262 8.99651 116.906 9.54685 114.834 10.642C112.767 11.7427 111.728 13.4104 111.728 15.6506C111.728 17.6352 112.539 19.2306 114.167 20.437C115.789 21.6433 117.84 22.6439 120.312 23.4444C122.785 24.2449 125.441 24.9564 128.291 25.5679C131.142 26.1794 133.803 26.9076 136.27 27.7526C138.743 28.5976 140.788 29.6427 142.416 30.8879C144.038 32.1331 144.855 33.8119 144.855 35.9244C144.855 37.1084 144.621 38.1758 144.16 39.1264C143.694 40.077 143.071 40.8886 142.293 41.5668C141.51 42.245 140.615 42.7731 139.599 43.1511C138.587 43.5291 137.532 43.7459 136.431 43.7848C134.109 43.8293 131.936 43.5513 129.908 42.9621C127.88 42.3728 125.919 41.7169 124.018 40.9997C122.118 40.2826 120.218 39.6044 118.318 38.9707C116.417 38.337 114.434 38.0201 112.361 38.0201C109.488 38.0201 107.41 38.4871 106.121 39.4154C104.832 40.3438 104.188 41.6335 104.188 43.2789C104.188 45.6026 104.982 47.5483 106.566 49.1103C108.149 50.6724 110.239 51.9288 112.839 52.8794C115.434 53.8299 118.412 54.5081 121.768 54.9084C125.124 55.3086 128.575 55.5088 132.125 55.5088C134.787 55.5088 137.404 55.2864 139.982 54.8417C142.554 54.397 144.922 53.2685 147.077 51.4507L143.277 62.4798C141.588 63.2803 139.887 63.8528 138.176 64.1919C136.465 64.531 134.531 64.6978 132.381 64.6978C128.58 64.6978 124.907 64.3198 121.357 63.5582C117.812 62.7966 114.684 61.5514 111.983 59.817C109.283 58.0826 107.116 55.8256 105.493 53.035C103.865 50.2444 103.054 46.8256 103.054 42.7675C103.054 40.7385 103.443 38.9763 104.227 37.4753C105.01 35.9744 106.082 34.7292 107.455 33.7341C108.827 32.739 110.444 31.9886 112.3 31.4827C114.156 30.9768 116.162 30.7211 118.318 30.7211H118.323Z" fill="#FBFFEE"/>
</svg>
