<svg width="47" height="64" viewBox="0 0 47 64" fill="none" xmlns="http://www.w3.org/2000/svg">
<path d="M0 64V0H33.4656C34.7099 0 35.9146 0.117897 37.074 0.353687C38.2335 0.589476 39.2685 0.982451 40.1678 1.53824C41.0727 2.09403 41.791 2.81824 42.3283 3.71649C42.8656 4.61473 43.1314 5.7207 43.1314 7.04562C43.1314 9.17895 42.5602 10.9698 41.4233 12.4239C40.2865 13.8723 38.8556 15.0905 37.1362 16.073C35.4169 17.0554 33.5674 17.8639 31.5935 18.5039C29.614 19.1439 27.7645 19.7221 26.0508 20.233C24.3314 20.7439 22.9005 21.2379 21.7637 21.7039C20.6268 22.1754 20.0556 22.7256 20.0556 23.3656C20.0556 24.5614 20.723 25.5214 22.0521 26.2456C23.3812 26.9698 25.0497 27.666 27.0462 28.3228C29.0427 28.9853 31.2033 29.7432 33.5278 30.5965C35.8467 31.4498 38.0072 32.5895 40.0094 34.021C42.0059 35.4526 43.6744 37.2828 45.0035 39.5228C46.3326 41.7628 47 44.6316 47 48.1291C47 50.4309 46.5193 52.5586 45.5521 54.4954C44.585 56.4379 43.2728 58.1109 41.6213 59.52C39.9641 60.9291 38.0751 62.0295 35.9485 62.8154C33.8219 63.607 31.5992 64 29.2746 64H0ZM32.9452 55.04C34.8343 55.04 36.5763 54.9109 38.1656 54.6582C39.7549 54.4 41.1292 53.979 42.2943 53.3782C43.4538 52.7832 44.37 52.014 45.0374 51.0765C45.7048 50.1389 46.0385 48.9656 46.0385 47.5565C46.0385 45.4681 45.2297 43.8456 43.6178 42.6947C42.0059 41.5439 39.9868 40.6232 37.5548 39.9439C35.1284 39.2646 32.5041 38.6863 29.6875 38.2147C26.8709 37.7432 24.2522 37.1368 21.8202 36.3902C19.3939 35.6435 17.3691 34.6386 15.7572 33.381C14.1452 32.1235 13.3365 30.3607 13.3365 28.0982C13.3365 26.734 13.8285 25.6 14.8183 24.7074C15.8081 23.8091 17.0523 23.0007 18.5568 22.2765C20.0613 21.5523 21.6845 20.8281 23.4265 20.0982C25.1685 19.374 26.7917 18.5095 28.2962 17.5046C29.8006 16.4996 31.0449 15.2646 32.0347 13.7937C33.0244 12.3228 33.5165 10.4758 33.5165 8.25824C33.5165 6.76491 33.1828 5.53544 32.5154 4.57544C31.848 3.61544 30.9374 2.86877 29.778 2.33544C28.6185 1.80211 27.2498 1.43719 25.6832 1.24632C24.1165 1.05544 22.4254 0.959995 20.6212 0.959995H9.33779V55.04H32.9339H32.9452Z" fill="#FBFFEE"/>
</svg>
