<svg width="51" height="64" viewBox="0 0 51 64" fill="none" xmlns="http://www.w3.org/2000/svg">
<path d="M0.0223647 64C1.67763 58.5916 3.1875 53.6502 4.54638 49.1701C5.90526 44.6899 7.24737 40.321 8.56151 36.0521C9.87566 31.7832 11.2066 27.4476 12.5431 23.0287C13.8796 18.6152 15.3559 13.7683 16.972 8.48776C17.3132 7.38718 17.727 6.33107 18.2135 5.31943C18.7 4.3078 19.2984 3.39621 19.9974 2.5958C20.6964 1.79538 21.5072 1.16172 22.4187 0.694806C23.3303 0.233455 24.3648 0 25.5112 0C26.6576 0 27.6865 0.233455 28.6036 0.694806C29.5151 1.16172 30.326 1.79538 31.025 2.5958C31.724 3.39621 32.3224 4.3078 32.8089 5.31943C33.2954 6.33107 33.7092 7.38718 34.0503 8.48776C35.6664 13.7683 37.1539 18.6152 38.5128 23.0287C39.8717 27.4421 41.2026 31.7832 42.4944 36.0521C43.7918 40.321 45.1171 44.6899 46.476 49.1701C47.8349 53.6502 49.3447 58.5916 51 64H41.2474C39.8885 59.6088 38.6526 55.5512 37.551 51.8326C36.4437 48.1139 35.3812 44.5065 34.3635 40.9991H13.0687C12.9849 43.6172 12.9513 46.1518 12.9737 48.6031C12.9961 51.0544 13.0352 53.3055 13.1023 55.3511C13.1638 57.4021 13.2701 59.1753 13.4211 60.6761C13.572 62.1768 13.7286 63.283 13.8964 64H0H0.0223647ZM34.0671 40.0486C33.301 37.5585 32.5572 35.0849 31.8359 32.6337C31.1145 30.1824 30.3595 27.67 29.571 25.0908C28.7826 22.5173 27.9549 19.8659 27.0826 17.1367C26.2102 14.4131 25.2875 11.5282 24.3089 8.48776C24.0964 7.77072 23.8 7.19819 23.4141 6.77575C23.0339 6.35331 22.4803 6.14209 21.7589 6.14209C20.3161 6.14209 19.0803 7.15373 18.0625 9.18256C17.0447 11.2114 16.1891 13.8405 15.5125 17.07C14.8303 20.2995 14.299 23.9347 13.9187 27.9701C13.5385 32.0056 13.2812 36.0299 13.1526 40.0431H34.0615L34.0671 40.0486Z" fill="#FBFFEE"/>
</svg>
