<svg width="45" height="64" viewBox="0 0 45 64" fill="none" xmlns="http://www.w3.org/2000/svg">
<path d="M0 0H31.9926C33.7196 0 35.2196 0.331201 36.5037 0.993599C37.7878 1.656 38.8506 2.50925 39.6919 3.55337C40.5332 4.59749 41.1642 5.77072 41.5849 7.07306C42.0055 8.3754 42.2159 9.68898 42.2159 11.0082C42.2159 13.5679 41.7011 15.7572 40.6716 17.5704C39.6421 19.3836 38.3469 20.9217 36.7915 22.1791C35.2362 23.4365 33.5646 24.4807 31.7768 25.3171C29.9889 26.1479 28.3173 26.8776 26.762 27.4951C25.2066 28.1126 23.9114 28.6908 22.8819 29.2241C21.8524 29.7574 21.3376 30.3468 21.3376 30.9811C21.3376 31.7053 21.8192 33.0189 22.7878 34.9162C23.7565 36.8136 24.9852 38.9804 26.4797 41.4111C27.9742 43.8418 29.6347 46.3623 31.4668 48.9613C33.2989 51.566 35.0867 53.9518 36.8303 56.1298C38.5738 58.3079 40.1845 60.0986 41.6568 61.5076C43.1292 62.9166 44.2417 63.6183 45 63.6183V64H34.5886C33.6642 64 32.917 63.9495 32.3469 63.8372C31.7768 63.7306 31.262 63.5172 30.8026 63.1973C30.3376 62.8773 29.8672 62.3889 29.3856 61.7265C28.9041 61.0641 28.2399 60.1996 27.3985 59.1331C26.0923 57.3816 24.6531 55.3495 23.0756 53.0199C21.4982 50.6959 20.048 48.3887 18.7196 46.1096C17.3967 43.8305 16.2786 41.7142 15.3764 39.7719C14.4742 37.8297 14.0203 36.3477 14.0203 35.326C14.0203 34.3044 14.4908 33.3837 15.4373 32.5754C16.3838 31.767 17.5627 30.9531 18.9686 30.1447C20.3801 29.3364 21.9022 28.427 23.5461 27.4278C25.1845 26.4229 26.7122 25.2216 28.1236 23.8126C29.5351 22.4036 30.7085 20.7196 31.655 18.7548C32.6015 16.7957 33.072 14.4044 33.072 11.5864C33.072 10.0931 32.8838 8.69538 32.5019 7.39303C32.1255 6.09069 31.5111 4.96237 30.6697 4.00246C29.8284 3.04254 28.7435 2.29594 27.4207 1.76265C26.0978 1.22937 24.5092 0.96553 22.655 0.96553H9.14945V64H0V0.00561046V0Z" fill="#FBFFEE"/>
</svg>
