<svg width="47" height="46" viewBox="0 0 47 46" fill="none" xmlns="http://www.w3.org/2000/svg">
<g clip-path="url(#clip0_25_278)">
<path d="M41.2755 0H5.72445C2.56756 0 0 2.51293 0 5.60266V40.3973C0 43.4871 2.56756 46 5.72445 46H23.9461C24.7126 46 25.3341 45.3918 25.3341 44.6416V28.1723C25.3341 27.4221 24.7126 26.8139 23.9461 26.8139H18.9579V22.9479H23.9461C24.7126 22.9479 25.3341 22.3396 25.3341 21.5895V16.0919C25.3341 13.1163 27.8071 10.6959 30.8474 10.6959H35.6603V14.5619H30.8474C29.9855 14.5619 29.285 15.2483 29.285 16.0919V21.5895C29.285 22.3396 29.9065 22.9479 30.673 22.9479H35.6613V26.8139H30.673C29.9065 26.8139 29.285 27.4221 29.285 28.1723V44.6416C29.285 45.3918 29.9065 46 30.673 46H41.2765C44.4324 46 47.0009 43.4871 47.0009 40.3973V5.60266C47.0009 2.51383 44.4334 0 41.2765 0H41.2755ZM44.2241 40.3973C44.2241 41.9885 42.9013 43.2831 41.2755 43.2831H32.0591V29.5298H37.0474C37.8139 29.5298 38.4354 28.9216 38.4354 28.1714V21.5886C38.4354 20.8384 37.8139 20.2301 37.0474 20.2301H32.0591V17.2779H37.0474C37.8139 17.2779 38.4354 16.6696 38.4354 15.9194V9.33656C38.4354 8.58637 37.8139 7.97813 37.0474 7.97813H30.8465C26.2759 7.97813 22.5582 11.6177 22.5582 16.0901V20.2292H17.5699C16.8034 20.2292 16.182 20.8375 16.182 21.5877V28.1705C16.182 28.9207 16.8034 29.5289 17.5699 29.5289H22.5582V43.2813H5.72445C4.09873 43.2813 2.77594 41.9867 2.77594 40.3955V5.60266C2.77594 4.01152 4.09873 2.71688 5.72445 2.71688H41.2755C42.9013 2.71688 44.2241 4.01152 44.2241 5.60266V40.3982V40.3973Z" fill="#FBFFEE"/>
</g>
<defs>
<clipPath id="clip0_25_278">
<rect width="47" height="46" fill="white"/>
</clipPath>
</defs>
</svg>
