<svg width="47" height="46" viewBox="0 0 47 46" fill="none" xmlns="http://www.w3.org/2000/svg">
<g clip-path="url(#clip0_25_284)">
<path d="M23.5 0C10.5426 0 0 10.3182 0 23C0 28.8669 2.25894 34.4557 6.35672 38.7322C7.06861 39.4757 8.26349 39.5126 9.02318 38.8159C9.78286 38.1191 9.82059 36.9497 9.1087 36.2062C5.66747 32.6166 3.77328 27.9265 3.77328 23C3.77328 12.3543 12.6229 3.693 23.5 3.693C34.3771 3.693 43.2267 12.3543 43.2267 23C43.2267 33.6457 34.3771 42.307 23.5 42.307C21.5706 42.307 19.6814 42.0386 17.8602 41.5068L19.7896 34.1258C20.9845 34.4114 22.2146 34.5566 23.4723 34.5566C31.3987 34.5566 37.846 28.734 37.846 21.5745C37.846 14.415 31.3987 8.59238 23.4723 8.59238C15.5459 8.59238 9.09864 14.415 9.09864 21.5745C9.09864 24.1547 9.93379 26.6462 11.5135 28.7832C12.1248 29.6105 13.3046 29.7951 14.1473 29.1968C14.99 28.5986 15.1787 27.4439 14.5699 26.6191C13.458 25.1173 12.8719 23.3742 12.8719 21.577C12.8719 16.456 17.6288 12.2878 23.4723 12.2878C29.3159 12.2878 34.0727 16.456 34.0727 21.577C34.0727 26.6979 29.3184 30.8661 23.4723 30.8661C22.534 30.8661 21.6134 30.7602 20.7254 30.5509L23.3667 20.4469C23.6258 19.4596 23.017 18.4527 22.0058 18.2016C20.9971 17.948 19.9682 18.5438 19.7116 19.5335L13.775 42.243C13.5385 43.1465 14.0265 44.0796 14.912 44.4194C17.6489 45.4707 20.5367 46.0049 23.5 46.0049C36.4575 46.0049 47 35.6867 47 23.0049C47 10.3232 36.4575 0 23.5 0Z" fill="#FBFFEE"/>
</g>
<defs>
<clipPath id="clip0_25_284">
<rect width="47" height="46" fill="white"/>
</clipPath>
</defs>
</svg>
