<svg width="47" height="46" viewBox="0 0 47 46" fill="none" xmlns="http://www.w3.org/2000/svg">
<g clip-path="url(#clip0_25_280)">
<path d="M33.347 0H13.652C6.12469 0 0 5.99437 0 13.3625V32.6375C0 40.0056 6.12469 46 13.6529 46H33.347C40.8753 46 47 40.0056 47 32.6375V13.3616C47 5.99438 40.8753 0 33.347 0ZM43.3281 32.6375C43.3281 38.0237 38.8512 42.4062 33.347 42.4062H13.652C8.14881 42.4062 3.67096 38.0246 3.67096 32.6375V13.3616C3.67096 7.97543 8.14881 3.59285 13.652 3.59285H33.3461C38.8494 3.59285 43.3272 7.97543 43.3272 13.3616V32.6366L43.3281 32.6375Z" fill="#FBFFEE"/>
<path d="M23.5 10.6016C16.5152 10.6016 10.832 16.1638 10.832 23C10.832 29.8362 16.5152 35.3984 23.5 35.3984C30.4848 35.3984 36.168 29.8362 36.168 23C36.168 16.1638 30.4848 10.6016 23.5 10.6016ZM23.5 31.8047C18.5393 31.8047 14.5039 27.8552 14.5039 23C14.5039 18.1448 18.5393 14.1953 23.5 14.1953C28.4607 14.1953 32.4961 18.1448 32.4961 23C32.4961 27.8552 28.4607 31.8047 23.5 31.8047Z" fill="#FBFFEE"/>
<path d="M36.3516 12.2188C37.3655 12.2188 38.1875 11.4143 38.1875 10.4219C38.1875 9.42949 37.3655 8.625 36.3516 8.625C35.3376 8.625 34.5156 9.42949 34.5156 10.4219C34.5156 11.4143 35.3376 12.2188 36.3516 12.2188Z" fill="#FBFFEE"/>
</g>
<defs>
<clipPath id="clip0_25_280">
<rect width="47" height="46" fill="white"/>
</clipPath>
</defs>
</svg>
