<svg width="66" height="61" viewBox="0 0 66 61" fill="none" xmlns="http://www.w3.org/2000/svg">
<path d="M0 4.79357V0.270874H19.5399V4.79357C19.0806 4.33405 18.5343 3.86968 17.9009 3.40048C17.2676 2.93128 16.6003 2.50804 15.9041 2.13316C15.2055 1.75587 14.4996 1.43904 13.7816 1.18267C13.0661 0.926302 12.3941 0.769096 11.7704 0.71347V27.8448H7.77439V0.711051C7.1507 0.766678 6.47866 0.921465 5.7631 1.18025C5.04755 1.43662 4.33925 1.75587 3.64062 2.13074C2.94199 2.50804 2.2772 2.93128 1.64384 3.39807C1.01048 3.86485 0.464143 4.33163 0.00483482 4.79115L0 4.79357Z" fill="#240808"/>
<path d="M22.2959 0.270874H26.2919V14.0566H37.8108V0.270874H41.8068V27.8424H37.8108V14.4968H26.2919V27.8424H22.2959V0.270874Z" fill="#240808"/>
<path d="M51.4787 13.3407C52.3973 13.3407 53.2289 13.4423 53.9735 13.6431C54.7181 13.8462 55.4119 14.0663 56.0549 14.3057C56.6979 14.5452 57.3216 14.7653 57.9284 14.9684C58.5352 15.1716 59.1588 15.2708 59.8019 15.2708C60.1137 15.2708 60.3941 15.2006 60.6431 15.0652C60.8921 14.9273 61.0154 14.7024 61.0154 14.3904C61.0154 13.9865 60.7543 13.6237 60.2298 13.302C59.7052 12.9804 59.0573 12.695 58.2862 12.4483C57.515 12.2016 56.6834 11.9743 55.7914 11.7735C54.8994 11.5704 54.0871 11.3793 53.3522 11.1955C52.378 10.9561 51.4231 10.7118 50.4852 10.4651C49.5472 10.2184 48.7084 9.89189 47.9638 9.48557C47.2193 9.08167 46.6222 8.55685 46.1725 7.91351C45.7229 7.27017 45.4981 6.44303 45.4981 5.43207C45.4981 5.00883 45.6214 4.49126 45.8703 3.87452C46.1193 3.25779 46.5859 2.66041 47.2749 2.08238C47.9638 1.50434 48.9235 1.01096 50.154 0.607057C51.3845 0.203159 52.992 0 54.9767 0C55.6923 0 56.4973 0.0314412 57.3869 0.0967422C58.2789 0.162043 59.1637 0.266041 60.046 0.413573C60.9284 0.561105 61.7455 0.749752 62.4997 0.979515C63.2539 1.20928 63.8414 1.4995 64.2644 1.84778L63.1355 5.9835C62.7318 5.69086 62.212 5.41756 61.5787 5.17087C60.9453 4.92176 60.237 4.70167 59.4562 4.50818C58.6754 4.3147 57.8486 4.16475 56.9759 4.0535C56.1032 3.94224 55.2257 3.88904 54.3434 3.88904C52.3224 3.88904 50.8623 4.12847 49.9606 4.60493C49.0613 5.0838 48.6093 5.80937 48.6093 6.78404C48.6093 7.64747 48.9622 8.34159 49.6705 8.86642C50.3764 9.39125 51.2684 9.82659 52.3442 10.1749C53.4199 10.5231 54.5754 10.8327 55.8156 11.0987C57.0557 11.3648 58.2136 11.6816 59.287 12.0492C60.3627 12.4169 61.2523 12.8715 61.9606 13.4133C62.6665 13.9551 63.0219 14.6855 63.0219 15.6045C63.0219 16.1197 62.9203 16.584 62.7197 16.9976C62.5166 17.4112 62.2459 17.7643 61.9074 18.0593C61.5666 18.3544 61.1774 18.5842 60.735 18.7486C60.295 18.9131 59.8357 19.0074 59.3571 19.0243C58.3466 19.0437 57.4014 18.9228 56.519 18.6664C55.6367 18.41 54.7833 18.1246 53.9566 17.8127C53.1298 17.5007 52.3031 17.2056 51.4763 16.9299C50.6496 16.6542 49.7865 16.5163 48.8849 16.5163C47.6351 16.5163 46.7309 16.7195 46.1701 17.1234C45.6093 17.5273 45.3288 18.0884 45.3288 18.8043C45.3288 19.8152 45.6745 20.6617 46.3635 21.3413C47.0525 22.0209 47.9614 22.5675 49.0928 22.9811C50.2217 23.3947 51.5174 23.6897 52.9775 23.8639C54.4376 24.038 55.9389 24.1251 57.4836 24.1251C58.6415 24.1251 59.7801 24.0283 60.9018 23.8349C62.0211 23.6414 63.0509 23.1504 63.9888 22.3595L62.3353 27.1579C61.6004 27.5062 60.8607 27.7553 60.1161 27.9029C59.3716 28.0504 58.5303 28.123 57.5948 28.123C55.9413 28.123 54.3434 27.9585 52.7986 27.6271C51.2563 27.2958 49.8953 26.754 48.7205 25.9995C47.5456 25.2449 46.6028 24.2629 45.8969 23.0488C45.1886 21.8347 44.8357 20.3473 44.8357 18.5818C44.8357 17.699 45.0049 16.9323 45.3458 16.2793C45.6866 15.6263 46.1532 15.0845 46.7503 14.6516C47.3474 14.2187 48.0508 13.8922 48.8583 13.6721C49.6657 13.452 50.5384 13.3407 51.4763 13.3407H51.4787Z" fill="#240808"/>
<path d="M0.55127 60.9282V33.3567H14.8551C15.3869 33.3567 15.9018 33.4075 16.3974 33.5091C16.893 33.6106 17.3353 33.7799 17.7197 34.0194C18.1065 34.2588 18.4135 34.5708 18.6432 34.9578C18.8728 35.3447 18.9864 35.8212 18.9864 36.392C18.9864 37.311 18.7423 38.0825 18.2564 38.709C17.7705 39.3329 17.1589 39.8578 16.424 40.281C15.6891 40.7043 14.8986 41.0525 14.0549 41.3282C13.2088 41.604 12.4183 41.8531 11.6859 42.0732C10.951 42.2932 10.3394 42.5061 9.85346 42.7068C9.36756 42.91 9.1234 43.147 9.1234 43.4227C9.1234 43.9379 9.40866 44.3514 9.97675 44.6634C10.5448 44.9754 11.258 45.2753 12.1113 45.5583C12.9647 45.8437 13.8881 46.1702 14.8817 46.5378C15.8728 46.9054 16.7963 47.3964 17.652 48.0131C18.5054 48.6299 19.2185 49.4183 19.7866 50.3833C20.3547 51.3483 20.6399 52.5842 20.6399 54.091C20.6399 55.0826 20.4345 55.9992 20.0211 56.8336C19.6077 57.6704 19.0469 58.3911 18.341 58.9982C17.6327 59.6053 16.8253 60.0793 15.9163 60.4179C15.0074 60.7589 14.0573 60.9282 13.0638 60.9282H0.55127ZM14.6327 57.0682C15.4401 57.0682 16.1847 57.0126 16.864 56.9037C17.5432 56.7925 18.1307 56.6111 18.6287 56.3523C19.1242 56.0959 19.5158 55.7646 19.8011 55.3607C20.0864 54.9568 20.229 54.4513 20.229 53.8443C20.229 52.9446 19.8833 52.2456 19.1943 51.7498C18.5054 51.254 17.6424 50.8573 16.6029 50.5647C15.5658 50.2721 14.4441 50.0229 13.2403 49.8198C12.0364 49.6166 10.9171 49.3554 9.87764 49.0338C8.84057 48.7121 7.97513 48.2792 7.28617 47.7374C6.59721 47.1957 6.25152 46.4362 6.25152 45.4616C6.25152 44.8738 6.46184 44.3853 6.88488 44.0007C7.30793 43.6138 7.83976 43.2655 8.48279 42.9535C9.12582 42.6415 9.81962 42.3295 10.5642 42.0151C11.3087 41.7031 12.0025 41.3307 12.6456 40.8977C13.2886 40.4648 13.8204 39.9327 14.2435 39.2991C14.6665 38.6654 14.8768 37.8697 14.8768 36.9144C14.8768 36.271 14.7342 35.7414 14.449 35.3278C14.1637 34.9142 13.7745 34.5926 13.2789 34.3628C12.7834 34.133 12.1983 33.9758 11.5287 33.8936C10.8591 33.8114 10.1363 33.7703 9.36515 33.7703H4.54241V57.0682H14.6278H14.6327Z" fill="#240808"/>
<path d="M21.7445 60.9283C22.4601 58.575 23.1128 56.4249 23.7002 54.4756C24.2876 52.5262 24.8678 50.6252 25.4359 48.7678C26.004 46.9103 26.5793 45.0239 27.1571 43.1011C27.7349 41.1808 28.3731 39.0718 29.0717 36.7742C29.2192 36.2953 29.3981 35.8358 29.6084 35.3956C29.8187 34.9554 30.0773 34.5588 30.3795 34.2105C30.6817 33.8622 31.0322 33.5865 31.4263 33.3834C31.8203 33.1826 32.2675 33.0811 32.7631 33.0811C33.2587 33.0811 33.7035 33.1826 34.0999 33.3834C34.4939 33.5865 34.8445 33.8622 35.1466 34.2105C35.4488 34.5588 35.7075 34.9554 35.9178 35.3956C36.1281 35.8358 36.307 36.2953 36.4545 36.7742C37.1531 39.0718 37.7961 41.1808 38.3836 43.1011C38.971 45.0215 39.5463 46.9103 40.1048 48.7678C40.6656 50.6252 41.2385 52.5262 41.826 54.4756C42.4134 56.4249 43.0661 58.575 43.7816 60.9283H39.5657C38.9782 59.0176 38.444 57.2521 37.9678 55.6341C37.4891 54.0161 37.0298 52.4464 36.5898 50.9203H27.3843C27.3481 52.0595 27.3336 53.1623 27.3433 54.2289C27.3529 55.2955 27.3698 56.275 27.3989 57.165C27.4254 58.0575 27.4714 58.829 27.5366 59.482C27.6019 60.135 27.6696 60.6163 27.7421 60.9283H21.7349H21.7445ZM36.4617 50.5067C36.1305 49.4232 35.809 48.347 35.4972 47.2804C35.1853 46.2138 34.859 45.1206 34.5181 43.9984C34.1773 42.8786 33.8195 41.725 33.4424 40.5375C33.0653 39.3524 32.6664 38.0971 32.2433 36.7742C32.1515 36.4622 32.0234 36.2131 31.8566 36.0293C31.6922 35.8455 31.4528 35.7536 31.141 35.7536C30.5173 35.7536 29.9831 36.1937 29.5431 37.0765C29.1031 37.9593 28.7333 39.1033 28.4408 40.5084C28.1458 41.9136 27.9162 43.4953 27.7518 45.2512C27.5874 47.0071 27.4762 48.7581 27.4206 50.5043H36.4593L36.4617 50.5067Z" fill="#240808"/>
<path d="M46.2717 33.3567H60.2444C60.9986 33.3567 61.6537 33.4994 62.2145 33.7848C62.7754 34.0702 63.2395 34.4378 63.607 34.8876C63.9744 35.3375 64.25 35.843 64.4337 36.4041C64.6174 36.9652 64.7093 37.5311 64.7093 38.0995C64.7093 39.2023 64.4845 40.1456 64.0349 40.9268C63.5852 41.708 63.0195 42.3706 62.3402 42.9124C61.661 43.4542 60.9309 43.904 60.1501 44.2644C59.3693 44.6223 58.6392 44.9367 57.9599 45.2028C57.2806 45.4688 56.7149 45.7179 56.2653 45.9477C55.8157 46.1774 55.5908 46.4314 55.5908 46.7047C55.5908 47.0167 55.8012 47.5826 56.2242 48.4001C56.6472 49.2176 57.1839 50.1511 57.8366 51.1984C58.4893 52.2456 59.2145 53.3315 60.0147 54.4513C60.8149 55.5735 61.5957 56.6014 62.3572 57.5398C63.1187 58.4782 63.8221 59.2497 64.4652 59.8568C65.1082 60.4638 65.5941 60.7662 65.9253 60.7662V60.9306H61.3781C60.9744 60.9306 60.6481 60.9089 60.3991 60.8605C60.1501 60.8145 59.9253 60.7226 59.7246 60.5848C59.5215 60.4469 59.3161 60.2365 59.1058 59.9511C58.8954 59.6657 58.6053 59.2933 58.2379 58.8337C57.6674 58.0792 57.0389 57.2036 56.3499 56.1999C55.6609 55.1987 55.0276 54.2046 54.4474 53.2227C53.8696 52.2408 53.3813 51.329 52.9873 50.4921C52.5933 49.6553 52.395 49.0168 52.395 48.5767C52.395 48.1365 52.6005 47.7398 53.0139 47.3916C53.4273 47.0433 53.9422 46.6926 54.5562 46.3443C55.1726 45.9961 55.8374 45.6042 56.5554 45.1737C57.2709 44.7408 57.9381 44.2233 58.5546 43.6162C59.171 43.0091 59.6835 42.2836 60.0969 41.4371C60.5103 40.593 60.7157 39.5627 60.7157 38.3486C60.7157 37.7053 60.6336 37.103 60.4668 36.5419C60.3024 35.9808 60.034 35.4947 59.6666 35.0811C59.2991 34.6675 58.8253 34.3459 58.2476 34.1161C57.6698 33.8864 56.976 33.7727 56.1662 33.7727H50.2677V60.9306H46.2717V33.3591V33.3567Z" fill="#240808"/>
</svg>
