<svg width="124" height="204" viewBox="0 0 124 204" fill="none" xmlns="http://www.w3.org/2000/svg">
<g clip-path="url(#clip0_18_183)">
<path d="M37.5768 53.1986C39.386 51.3472 40.6739 49.3232 42.024 47.344C42.39 46.8052 42.8526 45.8968 43.7158 46.5185C44.3719 46.9917 43.9748 47.7585 43.6088 48.2594C41.9929 50.4837 42.5764 53.1122 42.3589 55.5404C42.0861 58.5695 40.4357 60.7801 38.8439 63.0943C38.5539 63.5157 38.1534 63.8714 37.6493 63.5088C37.1901 63.1772 37.2522 62.6245 37.5077 62.1928C37.8357 61.6436 38.2604 61.1531 38.6471 60.6385C40.3804 58.3381 41.0434 55.8236 40.2354 52.6977C37.6976 55.3297 36.427 58.2034 36.2716 61.6194C35.9436 68.7761 35.5672 75.9328 35.1702 83.8597C37.1037 80.7753 38.6782 78.2746 39.7727 75.4941C39.9005 75.1729 39.7727 74.6997 39.6484 74.337C37.3938 67.6017 39.5 62.6314 45.936 59.5574C46.1535 59.4538 46.3641 59.3191 46.592 59.2465C48.2632 58.6904 49.7755 57.2018 51.5019 57.4539C53.5218 57.7475 53.0245 60.2136 53.9706 61.5538C55.0617 63.1012 56.3427 64.3895 57.7998 65.5466C58.7424 66.2961 59.2327 67.1458 58.3246 68.2062C57.5235 69.1422 57.565 70.0921 58.038 71.1283C59.0359 73.3181 58.1105 74.9242 56.3254 76.0848C54.2607 77.4249 51.9991 78.278 49.4544 77.829C47.2757 77.4456 45.5907 78.0501 44.1751 79.8565C42.1932 82.3848 39.4413 84.2535 37.7839 87.0823C37.3869 87.7627 36.5064 88.5226 37.0174 89.2203C37.6631 90.1011 38.4123 89.02 39.1167 88.8162C40.2734 88.4812 41.4025 88.046 42.5591 87.7144C43.122 87.552 43.7331 87.6004 44.0266 88.2152C44.3511 88.8991 43.8747 89.2825 43.3326 89.5208C41.8582 90.1667 41.6338 91.5828 41.2402 92.8781C40.6049 94.9712 39.3411 96.4875 37.1728 96.9365C35.329 97.3199 34.6488 98.4908 34.4796 100.152C34.3035 101.914 34.1965 103.682 34.0204 105.447C33.9272 106.387 34.4831 106.352 35.1805 106.521C37.4007 107.057 39.0062 108.176 38.6851 110.863C38.5574 111.91 38.7956 112.946 39.2617 113.916C42.7525 121.204 43.9575 129.079 45.0866 136.965C45.9014 142.654 45.5562 148.639 49.7168 153.396C50.4315 154.214 50.5558 155.399 50.1518 156.401C49.0953 159.012 49.1229 161.768 48.9503 164.486C48.8639 165.837 48.1768 166.386 47.0961 166.987C41.8962 169.888 36.2613 169.643 30.6125 169.529C29.7528 169.512 28.2853 168.507 28.123 169.692C27.9504 170.952 28.4752 172.589 29.9806 173.332C30.4053 173.543 30.8991 173.653 31.3721 173.719C33.9686 174.085 35.7675 175.581 37.1383 177.715C39.9488 182.088 37.6009 186.81 32.5081 187.877C28.6375 188.689 25.7372 187.728 23.2373 184.875C22.6435 184.198 22.0358 183.514 21.8977 182.616C21.6663 181.079 21.4971 179.183 23.0612 178.537C24.325 178.016 25.5542 179.252 26.2931 180.516C26.6383 181.107 26.8869 181.857 27.7605 181.794C27.8675 181.649 27.94 181.594 27.9573 181.525C28.2197 180.599 26.4381 179.542 27.6466 179.007C28.9724 178.42 29.3108 180.174 29.8771 181.031C30.4916 181.957 30.8749 183.045 31.3065 184.084C32.0868 185.953 33.1814 186.191 34.528 184.754C37.5871 181.494 36.3476 176.9 32.0178 175.529C30.9681 175.197 29.8978 174.976 29.8149 176.689C29.7597 177.843 28.9517 178.223 27.9435 177.964C26.8662 177.688 25.3263 177.321 25.675 175.961C26.2447 173.74 24.8981 172.918 23.5446 171.868C22.6262 171.153 21.5662 170.279 23.5446 169.502C24.066 169.298 24.7289 169.205 24.7359 168.493C24.7428 167.64 23.9383 167.602 23.3789 167.346C19.4876 165.564 15.5342 163.875 12.6994 159.865C12.0572 162.093 11.0732 163.782 9.71967 165.226C8.87719 166.124 9.43309 166.459 10.1582 167.067C12.4992 169.035 14.7538 171.125 16.5493 173.626C17.1984 174.531 17.7785 175.536 18.1583 176.582C19.7259 180.893 19.1078 182.147 14.6951 183.442C12.5406 184.074 10.3377 184.412 8.05197 184.558C0.842551 185.01 -1.80919 177.518 1.23962 172.292C2.29963 170.476 2.54478 168.313 3.95697 166.676C4.24355 166.341 4.16759 165.585 4.07436 165.053C3.83267 163.675 2.91768 162.124 5.51417 162.006C6.10805 161.979 6.02519 160.911 6.26688 160.328C7.27164 157.882 8.5768 155.713 11.3736 154.998C12.1332 154.805 12.2609 154.173 12.5717 153.613C14.7366 149.683 16.1488 145.379 19.0422 141.797C20.7479 139.687 21.3728 136.865 22.2498 134.271C23.1269 131.677 23.99 129.073 24.7566 126.441C26.0721 121.919 25.8028 117.557 23.3685 113.398C22.5192 111.944 21.8321 110.383 21.1829 108.825C20.5131 107.223 19.4151 105.534 22.1428 104.532C23.1372 104.166 22.7643 102.912 22.4328 102.149C21.9356 101.002 21.3521 101.931 20.7375 102.214C18.7245 103.14 16.3732 103.102 14.4742 104.439C13.9701 104.794 13.3969 104.287 13.1 103.765C12.6338 102.957 12.5855 102.097 12.8272 101.195C13.1517 99.9864 14.6882 98.7775 13.8492 97.6826C12.8824 96.4184 10.9592 96.5186 9.40201 96.187C9.08781 96.1214 8.76325 96.0938 8.44214 96.0834C7.66526 96.0558 6.96435 95.8831 6.77789 95.0023C6.58454 94.0974 6.99887 93.3927 7.76885 92.9817C10.5069 91.5207 13.1241 89.4241 16.5389 91.2271C16.9256 91.4309 17.5057 91.424 17.9511 91.3238C19.8571 90.8886 20.6443 91.7694 20.8411 93.5551C20.9171 94.2562 21.0655 95.2683 21.9011 95.2303C22.8852 95.1888 22.5054 94.1146 22.6331 93.4653C22.7609 92.809 22.4812 91.7486 23.6102 91.9593C24.5529 92.1355 24.3491 93.1544 24.2076 93.8003C23.4756 97.1334 24.9775 100.318 24.8153 103.617C24.7807 104.345 24.8843 105.499 25.8131 105.613C26.8904 105.748 26.8317 104.573 27.0423 103.851C28.527 98.6981 29.1209 93.4445 28.8067 87.8214C27.0181 88.9198 25.0846 88.8576 23.2926 89.3757C22.2498 89.6762 21.3763 89.3827 21.3625 88.2566C21.3349 86.0185 20.5373 83.7906 21.252 81.5455C21.4212 81.0171 21.4902 80.2675 21.8666 80.0223C23.9106 78.7029 23.6551 77.5044 22.4915 75.5149C21.6974 74.1574 21.1795 73.7948 19.8363 74.1125C15.8725 75.0451 14.4707 71.5635 12.7167 69.4151C11.156 67.505 12.4508 65.1321 14.084 63.3291C14.4914 62.8767 15.2269 62.4656 14.9645 61.7369C14.6813 60.9597 13.863 61.2775 13.2553 61.2015C9.90957 60.7766 8.76325 59.3778 9.75765 56.9323C10.7417 54.5145 12.254 54.1139 14.7918 55.6854C14.2428 56.5524 13.3071 56.055 12.6269 56.3244C11.8673 56.6215 11.4357 57.181 11.339 57.9375C11.2182 58.8562 11.8915 59.2154 12.6338 59.4019C13.4936 59.6161 14.3671 59.7853 15.2407 59.9304C15.8104 60.0237 16.3594 59.92 16.8428 59.5574C18.1652 58.5626 17.9787 57.2121 17.3434 56.0723C16.4492 54.4627 17.9753 51.437 14.6157 51.2678C14.1392 51.2436 13.573 51.4198 13.4003 50.8188C13.2001 50.1176 13.8112 49.8482 14.2808 49.5546C16.4906 48.1765 17.4781 48.5529 18.6417 50.8188C19.7707 53.0224 21.7595 54.6769 22.6642 57.0809C23.0889 58.2138 23.9555 57.4815 24.6254 56.998C25.5887 56.3037 26.6142 55.2019 27.8365 56.1552C29.1209 57.1569 28.9068 58.8217 28.2094 59.9373C24.9672 65.1218 26.4899 70.3408 27.8952 75.539C28.8343 79.0172 29.7389 82.5057 29.9254 86.0944C30.2223 91.8177 30.1567 97.5341 28.9275 103.188C28.5719 104.822 28.6306 106.552 28.5374 108.241C28.4683 109.478 29.0242 110.411 30.319 110.297C32.1145 110.134 30.7575 108.929 30.7092 108.311C30.6056 106.939 30.4468 105.606 30.7092 104.228C31.5137 100.08 32.401 95.9418 32.9846 91.7625C33.4645 88.3395 33.6648 84.8648 33.7787 81.4074C33.8512 79.1761 32.5115 77.1659 32.6531 74.8102C32.9949 69.0801 33.9824 63.4466 34.8214 57.7855C35.7537 51.4923 36.6998 45.2026 37.5008 38.8921C37.7667 36.7955 38.3951 34.806 38.8301 32.7647C39.1236 31.3935 40.0835 30.4885 41.4439 30.1915C42.5626 29.9463 43.4741 30.5611 44.251 31.3071C44.6757 31.7182 44.9519 32.2846 44.5687 32.8269C44.1405 33.4348 43.5536 33.2414 43.115 32.8027C42.3623 32.0532 41.5026 31.352 40.7844 32.6197C40.087 33.8493 39.4309 35.3103 40.0041 36.7195C40.3356 37.5312 41.14 36.8508 41.6165 36.4743C42.5074 35.7732 43.4362 35.3759 44.5065 35.9769C45.6321 36.6125 45.1867 37.6349 45.0693 38.5743C45.0037 39.0924 44.6412 39.7763 45.4491 40.0008C46.0741 40.1735 46.5091 39.7211 46.8095 39.2133C47.431 38.153 47.3896 37.0753 46.8751 35.9735C46.2191 34.5712 45.8635 33.0859 45.6839 31.5524C45.639 31.1586 45.5078 30.6923 45.9912 30.5196C46.485 30.3435 46.7508 30.7649 46.8717 31.131C47.5588 33.1896 48.3702 35.2274 48.8156 37.3413C49.2092 39.1926 48.2286 40.6088 46.5471 41.4757C45.974 41.7693 45.2868 41.9075 44.8104 42.3047C43.6571 43.2649 42.8008 43.7001 42.3175 41.7175C42.1275 40.9369 41.254 40.6364 40.9329 41.4826C39.5345 45.1542 36.5858 48.3422 37.2936 52.6943C37.3075 52.7703 37.3696 52.8359 37.5699 53.1951L37.5768 53.1986ZM21.5386 148.484C22.1877 150.228 22.4328 151.962 19.9434 151.34C17.9269 150.836 18.0927 152.308 18.4863 152.947C19.8605 155.181 19.971 157.368 19.9814 159.982C19.9883 162.269 22.2464 164.542 24.5805 165.854C28.4545 168.034 32.7118 168.186 37.0209 167.906C37.7943 167.857 38.3675 167.488 38.9165 166.97C40.9743 165.036 43.008 163.094 44.289 160.507C44.8932 159.288 45.5044 158.276 47.1203 157.869C48.6222 157.489 48.9675 155.92 48.2839 154.47C47.4966 152.798 46.5851 151.182 45.6977 149.558C45.0348 148.349 44.4651 147.151 44.396 145.717C43.8194 133.998 41.6545 122.631 36.8655 111.841C36.4443 110.891 35.9885 110.455 35.0942 111.015C32.2802 112.777 29.404 112.307 26.4795 111.423C25.8994 111.246 25.1674 110.697 24.691 111.322C24.2041 111.961 24.9568 112.49 25.2987 112.984C27.4256 116.03 27.795 119.615 27.5879 123.052C27.4221 125.784 26.3276 128.558 25.1985 131.117C23.0405 136.005 24.2732 140.54 26.186 145.03C26.8317 146.55 28.0609 147.862 24.9948 148.515C25.7095 148.781 25.9202 148.926 26.1377 148.93C26.9767 148.947 27.7087 149.251 27.5084 150.166C27.2909 151.157 27.8882 152.456 26.8835 153.105C25.896 153.741 25.7026 152.259 25.0431 152.042C23.3098 151.465 23.7587 148.86 21.5386 148.491V148.484ZM8.81504 181.114C10.0546 182.116 12.6891 182.302 14.8229 181.639C16.7944 181.024 17.5402 179.953 16.8082 177.846C15.4202 173.864 12.5233 171.087 9.41583 168.541C7.92767 167.322 5.3001 168.12 4.87541 169.546C3.72563 173.387 5.98721 177.736 9.77146 179.024C10.6208 179.314 12.1125 179.304 11.7534 180.585C11.4012 181.857 10.1167 180.976 9.22592 180.945C9.09126 180.941 8.9566 181.055 8.81504 181.114ZM24.1074 66.3341C24.1074 65.3774 23.7898 64.5899 22.8783 64.1547C22.1117 63.7885 21.5869 63.9129 21.0966 64.7315C20.5476 65.6433 19.7466 65.3152 19.018 64.7971C16.7565 63.1944 15.3684 63.5986 14.3706 66.1372C14.1047 66.8108 13.7042 67.6017 14.3395 68.1647C14.9886 68.7381 15.472 67.9022 16.0003 67.6328C16.898 67.1769 17.8821 66.721 18.6486 67.6328C19.4289 68.5585 18.5381 69.2424 17.958 69.8917C17.4815 70.4271 16.7772 70.9245 17.2778 71.7431C17.7785 72.5651 18.6175 72.4995 19.4462 72.3095C21.504 71.8329 24.1247 68.4791 24.1074 66.3341Z" fill="black"/>
<path d="M122.598 124.344C123.164 127.204 122.671 130.005 121.901 132.699C120.633 137.148 120.892 141.666 121.027 146.156C121.189 151.589 120.53 156.929 119.788 162.269C119.539 164.054 119.981 165.816 119.646 167.571C119.56 168.03 119.57 168.624 118.911 168.621C118.306 168.617 118.109 168.068 118.096 167.602C118.044 166.158 118.078 164.714 118.078 162.607C116.39 164.904 113.49 164.479 112.547 167.042C113.907 167.595 114.815 166.735 115.789 166.168C116.283 165.882 116.846 165.471 117.25 166.141C117.626 166.766 117.063 167.163 116.604 167.505C116.411 167.65 116.214 167.812 115.993 167.892C110.931 169.681 106.425 172.828 101.115 174.005C99.1951 174.43 97.7311 174.316 97.0371 171.919C96.4639 169.93 94.2162 169.978 92.6037 169.574C90.1108 168.952 87.5799 168.572 85.2286 167.408C84.2928 166.945 83.1949 166.372 82.0969 167.398C81.32 168.12 80.5673 167.536 79.9734 166.98C78.9134 165.989 78.0916 164.849 77.3769 163.543C73.42 156.304 73.2577 148.214 72.1598 140.367C71.1412 133.114 70.1295 125.805 69.9465 118.503C69.7532 110.811 69.3664 103.064 70.8201 95.3821C72.1459 88.3601 76.0269 82.5332 79.0446 76.278C83.8025 66.4203 89.2269 56.7008 90.8531 45.7516C91.8475 39.0543 90.5597 32.0151 91.5817 25.3247C92.6106 18.5997 91.5851 11.8437 92.9145 5.21205C93.4117 2.72517 96.6366 0.0932231 99.1778 0.0206892C101.702 -0.0552987 104.146 0.252107 106.553 1.07761C108.966 1.90657 110.254 3.48159 109.778 6.00647C108.659 11.8955 108.87 17.8882 108.238 23.8118C107.758 28.3055 107.506 32.8647 108.507 37.2997C109.474 41.5895 108.98 45.983 109.854 50.2625C110.758 54.694 112.153 58.7801 115.851 61.8023C118.873 64.2719 120.036 67.8987 120.872 71.5219C122.819 79.9393 124.587 88.4292 123.813 97.1264C123.164 104.435 123.996 111.816 122.577 119.073M87.535 162.189C87.7664 162.611 88.305 163.184 88.1807 163.429C86.8997 165.978 89.0888 166.182 90.4492 166.638C96.0254 168.51 101.84 168.413 107.623 168.403C109.543 168.4 110.472 166.745 111.535 165.464C112.171 164.697 111.66 164.307 110.845 164.241C110.285 164.196 109.712 164.244 109.16 164.168C104.758 163.55 100.376 164.921 95.9495 164.241C93.0698 163.799 90.2972 163.039 87.5316 162.193C87.2553 160.842 87.9804 160.887 88.9196 161.181C90.3801 161.637 91.8234 162.186 93.315 162.49C99.9547 163.847 106.608 161.827 113.265 162.511C114.232 162.611 114.933 161.934 115.206 160.984C115.651 159.44 116.273 157.903 116.418 156.328C117.005 149.903 118.044 143.555 119.249 137.224C120.274 131.825 121.013 126.337 120.685 120.893C120.16 112.213 119.359 103.551 119.439 94.8433C119.47 91.5205 119.021 88.26 118.33 85.0201C118.113 84.0012 117.775 82.8924 117.975 81.9253C119.415 74.9586 114.225 70.7413 111.459 65.1113C111.093 65.7744 110.931 66.0335 110.807 66.3064C110.565 66.8486 110.296 67.4185 109.578 67.0593C109.042 66.7899 109.094 66.1924 109.35 65.7883C110.051 64.6795 109.712 62.4759 111.225 62.5C112.63 62.5208 114.197 63.5811 114.843 65.2563C115.106 65.9333 115.413 66.5896 115.724 67.2458C116.766 69.4495 117.913 71.5944 119.515 73.4838C118.731 69.8709 118.265 65.8124 115.42 63.4464C111.128 59.875 108.628 55.5299 108.286 50.2349C107.717 41.4272 105.517 32.7128 106.684 23.7876C107.105 20.5513 106.812 20.3889 103.773 21.1453C100.98 21.8396 98.2248 22.1746 95.5213 20.7999C94.9033 20.4856 94.1298 19.9675 93.7431 21.0659C93.4496 21.8949 93.1769 22.8171 93.9054 23.5631C94.1471 23.8084 94.6409 23.9776 94.9792 23.9224C95.5282 23.836 95.3487 23.3732 95.2555 22.969C94.924 21.5149 95.7941 21.7567 96.6469 22.0227C97.4134 22.261 98.1662 22.5408 98.9361 22.7687C99.5576 22.9552 100.259 23.0554 100.366 23.8498C100.455 24.513 99.9236 24.8791 99.4575 25.1658C98.3768 25.8324 97.4307 26.5025 97.997 28.0222C98.1765 28.5058 97.8105 28.8788 97.5205 29.2968C95.0379 32.8889 93.1941 36.785 92.9697 41.1958C92.6141 48.1141 90.9671 54.7216 88.4811 61.1288C85.232 69.5013 80.1978 76.9758 76.2686 85.0063C74.0657 89.5069 72.0251 94.2699 71.8663 99.2333C71.7143 104.1 69.7601 109.25 72.8365 113.951C72.9159 114.072 72.9056 114.265 72.9021 114.424C72.7813 119.184 73.6893 123.874 73.6859 128.648C73.6859 133.103 73.5823 137.718 76.2271 141.742C76.5517 142.236 77.0558 142.951 76.5344 143.662C75.8266 143.728 75.8957 142.602 75.1361 142.726C75.4088 146.111 76.4067 149.074 78.1711 151.872C80.5707 155.672 84.6485 157.944 86.9204 161.827C87.024 162.006 87.3244 162.072 87.535 162.189ZM94.4889 10.7419C94.7617 10.4863 94.9965 10.2998 95.1898 10.0787C95.6974 9.50537 96.0082 8.5417 97.0682 9.02871C98.5494 9.71261 98.6012 11.1771 98.8636 12.5069C99.019 13.2979 99.2158 14.1303 98.4493 14.7347C98.0004 15.087 97.5032 14.9351 97.1372 14.5758C96.1773 13.6363 95.1346 13.6053 94.5614 14.7762C94.009 15.9091 94.1229 17.301 95.5144 17.8675C98.7635 19.1869 102.057 20.23 105.5 18.2992C106.36 17.8191 106.902 17.2665 107.009 16.3028C107.088 15.6155 107.223 14.8487 106.094 15.315C103.767 16.2752 102.265 14.5655 100.707 13.4775C99.3677 12.5449 99.6301 9.87494 100.593 10.1133C102.841 10.6659 104.298 8.67295 106.242 8.82838C107.723 8.94927 107.927 8.20666 107.796 7.11865C107.627 5.72324 106.663 6.09972 105.783 6.30696C102.638 7.05303 99.4782 7.68511 96.2464 6.84233C94.9861 6.5142 94.3923 7.02194 94.3715 8.25847C94.3577 9.03217 94.0366 9.82313 94.4889 10.735V10.7419ZM121.59 110.752C123.327 98.4941 122.291 80.2329 119.459 77.3212C121.134 88.4119 120.986 99.6029 121.59 110.752ZM99.8649 5.33639C101.819 5.49528 103.68 4.99445 105.541 4.54543C106.146 4.40036 106.926 4.24493 106.978 3.48505C107.04 2.51448 106.097 2.43849 105.458 2.26233C103.445 1.70969 101.508 2.48339 99.568 2.81843C98.2525 3.04294 95.8355 2.68372 95.9529 4.12749C96.0841 5.79923 98.4389 5.13951 99.8649 5.33639Z" fill="black"/>
<path d="M71.1033 169.577C71.3071 167.553 71.4383 165.885 71.6627 164.227C71.7352 163.688 71.97 163.08 72.6606 163.015C73.3304 162.949 73.6515 163.467 73.9381 163.958C74.6045 165.115 74.7081 166.355 74.6459 167.688C74.4664 171.453 73.106 175.076 73.2406 179.134C74.8013 178.326 75.8164 176.851 77.5877 176.914C78.2092 176.934 78.8997 176.523 79.39 177.148C79.9252 177.832 79.687 178.644 79.2139 179.162C77.8328 180.672 78.5579 181.69 79.7802 182.775C80.5571 183.466 81.1613 184.347 81.8795 185.11C82.6391 185.915 83.485 186.46 84.6555 185.859C85.6258 185.362 86.5028 185.659 87.3867 186.205C87.8459 186.491 88.4191 186.699 88.9577 186.74C92.4692 187.01 93.7088 188.395 93.7019 192.014C93.6984 193.7 93.7951 195.389 93.8987 197.071C93.9643 198.176 94.2163 198.826 95.7045 198.439C98.6946 197.658 101.761 197.817 104.785 198.429C105.635 198.601 106.691 198.774 106.715 199.903C106.74 200.943 106.063 201.817 105.12 202.135C103.674 202.622 101.906 202.252 100.918 203.92C100.815 204.097 100.159 203.951 99.758 203.945C97.3929 203.907 95.1693 202.573 92.7109 203.233C92.3276 203.337 91.6992 203.071 91.3747 202.774C88.5883 200.218 85.2322 198.802 81.6861 197.682C80.8091 197.406 79.7042 196.798 79.8631 195.703C80.0184 194.629 81.2304 194.788 82.0729 194.671C83.5748 194.46 83.1191 193.842 82.4354 193.144C80.5053 191.182 78.4543 189.338 75.9442 188.184C74.7184 187.621 73.9484 186.979 73.762 185.611C73.4374 183.238 72.0839 181.269 71.1033 179.155C70.7373 178.364 70.2056 177.825 69.2596 177.856C66.7183 177.939 64.4705 176.52 61.9535 176.43C61.4252 176.409 60.9038 176.043 60.3928 175.808C59.8783 175.573 59.2948 175.345 59.3052 174.658C59.319 173.902 59.9577 173.826 60.5136 173.753C62.4817 173.494 61.9776 172.859 60.8589 171.954C59.792 171.094 59.0255 169.823 59.6228 168.548C60.379 166.938 59.716 166.275 58.5317 165.436C57.3578 164.607 55.3586 163.56 56.8399 161.927C58.1934 160.431 59.8093 161.847 60.9832 162.973C61.9673 163.92 62.7787 165.046 63.7558 165.999C64.2599 166.493 65.0057 166.963 65.7204 166.514C66.3903 166.092 66.0277 165.346 65.8827 164.738C65.5996 163.529 65.61 162.338 66.0485 161.167C66.2522 160.624 66.5595 160.134 67.219 160.089C67.8784 160.044 68.2652 160.479 68.5241 160.998C68.9592 161.871 69.2216 162.811 69.1767 163.795C69.0835 165.819 69.8155 167.57 71.1137 169.581L71.1033 169.577Z" fill="black"/>
<path d="M27.3323 131.287C26.6382 131.228 26.5208 130.737 26.6624 130.25C27.7673 126.475 28.8998 122.71 30.0496 118.949C30.2015 118.451 30.6331 118.154 31.1856 118.334C31.7863 118.527 31.7553 118.987 31.5999 119.505C30.571 122.966 29.8597 126.52 28.4924 129.881C28.2507 130.478 28.0401 131.1 27.3288 131.29L27.3323 131.287Z" fill="black"/>
<path d="M114.118 102.705C115.023 103.478 115.074 104.628 115.095 105.696C115.244 113.191 114.743 120.669 114.367 128.15C114.104 133.379 113.569 138.595 113.731 143.845C113.769 145.127 113.745 146.439 113.51 147.693C113.324 148.698 112.944 149.979 111.452 148.791C110.582 148.1 109.985 148.826 109.274 149.133C101.27 152.618 93.3633 152.394 85.5704 148.456C85.2113 148.277 84.8867 148.018 84.5173 147.866C80.1944 146.087 79.0653 142.899 78.537 138.253C77.4908 129.055 78.9272 119.899 78.0398 110.749C77.8327 108.604 78.1745 106.411 78.2539 104.238C78.323 102.356 78.9548 102.062 80.6536 103.04C85.1905 105.644 89.8725 108.041 95.1795 108.566C99.5921 109.005 103.718 107.305 107.944 106.39C108.493 106.273 109.011 106.024 109.553 105.872C110.023 105.741 110.569 105.634 110.828 106.179C111.104 106.763 110.607 107.039 110.189 107.288C109.913 107.454 109.629 107.64 109.322 107.713C104.795 108.794 100.334 110.462 95.6387 110.379C90.5286 110.29 86.033 107.906 81.6204 105.575C80.4533 104.957 79.8284 104.722 79.8629 106.349C80.0873 117.702 79.2932 129.072 80.5742 140.408C80.8021 142.439 81.7136 143.807 83.2156 145.044C89.8173 150.487 103.542 151.33 110.182 146.833C111.556 145.904 112.146 144.999 112.191 143.362C112.55 130.157 113.448 116.97 113.497 103.751C113.497 103.357 113.483 102.926 114.121 102.701L114.118 102.705Z" fill="black"/>
</g>
<defs>
<clipPath id="clip0_18_183">
<rect width="124" height="204" fill="white"/>
</clipPath>
</defs>
</svg>
