<svg width="339" height="259" viewBox="0 0 339 259" fill="none" xmlns="http://www.w3.org/2000/svg">
<g clip-path="url(#clip0_18_93)">
<path d="M174.723 100.969C174.662 94.4847 174.613 88.0001 174.54 81.5155C174.528 80.2088 173.845 79.647 172.546 80.0439C171.083 80.4896 168.668 79.5066 168.735 82.3337C168.814 85.4722 168.826 88.629 169.625 91.7003C169.778 92.2743 169.985 92.8788 169.948 93.4528C169.906 94.1733 169.57 94.9182 168.741 94.9976C167.844 95.0831 167.472 94.332 167.405 93.6237C167.265 92.1094 167.222 90.5829 167.21 89.0625C167.186 85.808 167.222 82.5474 167.192 79.2929C167.18 78.0961 166.85 76.9359 165.393 76.942C163.917 76.9481 163.192 77.8946 163.332 79.3661C164.094 87.3711 163.649 95.4189 164.088 103.424C164.173 104.95 163.893 106.44 164.1 107.924C164.204 108.669 164.198 109.75 165.143 109.884C165.503 109.933 166.003 109.005 166.893 108.022C166.893 112.382 166.893 116.192 166.893 119.996C166.893 120.912 166.82 121.846 166.979 122.737C167.509 125.711 167.161 128.141 163.478 128.77C161.795 119.922 162.582 110.892 162.387 101.91C162.21 93.9168 162.24 85.924 162.076 77.9312C162.057 76.9542 162.24 75.3667 160.826 75.153C159.63 74.9698 159.453 76.4291 158.905 77.2351C150.758 89.148 142.598 101.055 131.579 110.617C130.134 111.869 128.615 113.096 128.03 115.08C127.64 116.405 126.487 116.943 125.274 117.236C115.901 119.477 106.863 123.067 97.2589 124.355C89.9228 125.339 82.5929 126.254 75.1471 125.693C64.8657 124.917 56.5784 120.283 49.6326 112.919C46.986 110.11 44.2358 107.381 41.7844 104.413C39.0158 101.067 35.4179 100.804 31.5578 101.018C29.7162 101.116 29.8626 102.539 29.8077 103.687C29.5942 107.997 30.509 112.192 31.4969 116.332C34.3874 128.459 39.4305 139.779 44.7419 150.996C45.8152 153.268 46.4006 153.145 48.0471 151.588C53.5598 146.386 58.7554 145.83 65.5609 149.36C73.2323 153.335 78.8853 159.575 84.0565 166.237C85.7639 168.435 85.5017 171.482 83.8918 173.936C79.1902 181.074 74.3056 188.06 67.1769 193.109C65.1157 194.569 63.2497 196.321 61.3837 198.031C56.8955 202.134 51.5657 203.221 45.7969 202.207C43.3577 201.78 41.4246 202.372 39.5037 203.661C36.5827 205.621 33.7227 205.48 31.0761 203.013C30.0272 202.037 29.0637 202.165 28.0209 202.592C21.8009 205.151 15.904 208.32 10.4523 212.282C9.3973 213.046 8.49478 214.188 9.32412 215.397C13.2208 221.081 11.9585 227.2 11.1536 233.342C10.7328 236.56 10.6169 239.821 10.4462 243.063C10.4035 243.869 10.7145 244.724 9.82417 245.231C8.86677 245.774 8.00083 245.341 7.30565 244.73C3.62239 241.5 0.640416 237.702 0.213548 232.689C-0.66458 222.37 1.3417 212.46 5.33596 202.952C8.40941 195.637 11.9951 188.774 19.5141 184.848C24.6975 182.143 30.3565 180.983 35.8021 179.133C36.8571 178.772 37.9487 178.522 39.028 178.223C45.6079 176.397 44.9737 176.843 47.5959 180.812C49.1875 183.224 51.0169 184.634 54.0964 182.528C55.7063 181.423 57.8895 181.227 59.9872 181.722C62.9387 182.412 65.8597 181.868 68.7258 181.166C71.1346 180.574 72.9701 179.377 73.1591 176.507C73.3177 174.156 74.1104 171.94 75.2447 169.864C75.5984 169.217 75.7325 168.545 75.513 167.812C75.0678 166.341 69.2624 162.195 67.7745 162.304C66.8659 162.372 66.2622 162.952 65.8902 163.684C65.2987 164.863 64.7559 166.072 64.323 167.318C62.585 172.27 62.085 172.746 57.1028 171.354C48.6935 169.009 40.7294 165.394 32.8445 161.724C27.9112 159.429 25.1121 154.648 22.1667 150.263C17.4712 143.278 15.6845 134.986 12.1414 127.47C10.3486 123.659 11.6109 120.063 13.8977 116.876C20.1605 108.132 26.1427 99.1497 34.119 91.7919C38.2901 87.9451 43.4187 88.3603 48.5106 88.7084C57.7736 89.3434 65.3292 93.4222 71.8602 99.9007C74.2019 102.221 74.8727 105.402 76.8973 107.814C78.2023 109.365 79.3792 111.026 80.7086 112.552C81.6172 113.603 82.8307 114.317 84.2272 113.578C86.8372 112.198 88.6544 113.816 90.6241 115.05C91.173 115.398 91.2827 116.021 92.1243 116.308C97.0149 117.956 96.9783 118.042 99.7591 113.731C101.869 110.458 103.955 107.155 108.351 106.624C109.071 106.538 109.504 105.988 109.876 105.292C119.023 88.3603 132.774 76.5451 150.325 69.0225C152.288 68.1799 154.063 67.4044 152.959 64.8948C151.916 62.5379 150.172 62.5684 147.934 63.5637C142.702 65.8901 137.848 68.8576 133.213 72.1366C128.499 75.4766 123.59 77.3145 117.657 77.2229C101.863 76.9787 86.6238 74.121 71.72 68.9675C67.1281 67.38 63.8412 64.4796 61.0971 60.7244C56.7247 54.7405 52.3463 48.7504 48.0776 42.6932C44.992 38.3213 46.6202 30.4689 51.4986 26.6038C59.3896 20.3512 68.1404 15.7473 77.9888 13.4026C80.5561 12.792 83.1295 12.1936 85.5444 11.0762C88.2642 9.81831 90.9595 10.5877 93.5695 11.4242C97.3381 12.6271 101.076 13.9338 104.766 15.3687C106.991 16.2358 109.181 16.8769 111.577 16.4678C112.675 16.2785 113.529 16.8342 114.395 17.3898C119.877 20.8947 125.578 23.9782 131.542 26.616C134.5 27.9227 137.22 29.7606 139.836 31.7146C141.11 32.6671 142.001 32.9175 142.373 30.6827C143.836 21.9449 148.513 15.3382 156.16 10.8563C157.508 10.0687 158.435 9.08558 158.996 7.49191C160.508 3.15662 163.808 0.726411 168.271 0.121913C172.76 -0.488691 176.65 1.0134 179.059 4.89684C180.791 7.68119 183.017 9.48248 185.822 11.0517C193.225 15.1977 197.792 21.5541 199.427 29.9499C199.524 30.4445 199.719 30.9147 199.982 31.7451C202.262 29.2355 204.39 26.903 206.507 24.5583C212.428 18.0004 219.703 13.1583 227.045 8.40781C228.161 7.6873 229.441 7.44306 230.844 7.76057C238.247 9.42752 245.644 11.1311 253.084 12.6271C258.243 13.6651 263.213 15.5702 268.543 15.79C274.348 16.0343 278.885 19.0506 282.995 22.8364C284.788 24.485 286.361 26.4145 288.288 27.88C292.539 31.1101 294.801 35.4759 295.356 40.5744C296.197 48.2253 295.667 55.7235 292.276 62.9226C288.069 71.8557 280.507 75.1713 271.457 75.9834C252.883 77.6564 234.625 75.7147 216.483 71.3733C207.751 69.285 200.152 64.7666 191.877 61.7746C191.688 61.7075 191.53 61.5243 191.34 61.4937C189.554 61.1884 187.645 58.5995 186.072 60.8343C184.523 63.0325 186.084 65.8474 188.926 67.5021C194.542 70.7688 200 74.3286 205.756 77.3206C215.385 82.3276 220.41 90.6928 223.801 100.505C225.094 104.242 226.783 107.845 228.289 111.514C229.088 113.462 230.545 114.555 232.588 115.001C234.869 115.502 237.174 115.941 239.375 116.698C244.931 118.604 249.498 117.7 254.023 113.566C257.956 109.976 262.847 107.454 267.884 105.421C272.268 103.656 275.513 100.06 279.598 97.7697C283.038 95.8463 286.38 93.8008 288.886 90.5158C290.203 88.7939 292.435 87.8047 294.655 87.2918C298.612 86.382 302.588 85.5821 306.558 84.7211C307.485 84.5196 308.394 84.5379 309.217 85.0325C317.035 89.7098 325.584 93.2269 332.28 99.6748C333.957 101.287 335.811 102.697 337.122 104.706C339.958 109.054 339.378 113.212 337.006 117.566C334.384 122.377 332.054 127.347 329.646 132.275C328.603 134.406 327.109 136.165 325.59 137.954C320.017 144.53 313.845 150.575 308.821 157.658C306.625 160.754 303.777 163.483 300.734 165.889C296.271 169.418 290.813 169.845 285.526 170.59C282.696 170.987 281.227 168.362 279.855 166.518C277.989 164.008 276.86 164.381 275.122 166.524C273.128 168.985 271.323 171.561 269.768 174.297C268.506 176.519 268.402 178.956 269.262 181.38C272.39 190.179 274.104 191.327 283.385 191.809C288.648 192.084 293.557 191.589 298.368 189.018C302.881 186.607 307.327 188.78 310.9 191.436C316.504 195.601 321.828 200.174 325.987 205.95C328.463 209.388 328.017 213.015 326.737 216.386C324.621 221.967 322.243 227.511 318.718 232.402C316.974 234.814 317.943 235.492 320.309 236.2C326.609 238.087 332.14 241.085 334.975 247.545C336.335 250.647 336.756 253.999 337.732 257.205C337.902 257.766 338.104 258.481 337.457 258.859C336.799 259.25 336.274 258.688 335.89 258.267C331.432 253.303 325.572 250.842 319.389 248.949C318.047 248.54 317.096 247.636 316.236 246.641C312.272 242.049 307.638 238.148 303.948 233.226C298.149 225.496 299.24 218.126 303.692 210.597C304.979 208.423 304.576 207.978 302.265 207.77C297.515 207.343 292.776 206.158 288.056 206.256C281.245 206.396 276.562 203.166 272.415 198.391C265.615 190.551 259.151 182.473 254.621 173.045C253.438 170.584 252.431 168.038 251.413 165.498C249.705 161.26 252.114 158.22 254.669 155.423C256.511 153.408 258.712 151.723 260.798 149.934C264.054 147.143 268 146.917 271.384 148.774C278.019 152.419 282.946 150.349 288.502 146.136C295.673 140.701 302.46 134.62 310.735 130.712C314.333 129.014 318.035 127.659 321.767 126.315C325.731 124.881 326.017 123.788 323.657 120.344C321.194 116.747 318.212 113.493 316.401 109.469C315.522 107.521 314.656 105.567 314.778 103.338C314.827 102.502 314.687 101.665 313.748 101.336C312.845 101.018 312.187 101.525 311.589 102.111C311.302 102.398 311.034 102.703 310.784 103.027C305.607 109.793 298.972 114.354 290.679 116.43C289.24 116.79 288.014 117.694 287.245 118.854C283.452 124.606 277.22 125.674 271.329 126.621C263.146 127.927 254.828 128.617 246.522 126.926C243.839 126.383 241.077 126.254 238.698 128.282C238.143 128.758 237.131 129.039 236.412 128.917C230.265 127.873 223.819 127.891 218.727 123.287C212.635 117.779 205.366 113.59 200.128 107.136C195.402 101.317 190.627 95.48 186.529 89.2274C184.303 85.8324 183.401 81.5582 181.968 77.6503C181.486 76.3375 181.455 74.5485 179.443 74.8904C177.358 75.2507 178.022 77.0397 178.077 78.3708C178.394 85.5577 179.114 92.7139 179.736 99.8824C180.291 106.251 179.913 112.675 179.467 119.049C179.303 121.388 179.589 123.696 179.419 126.035C179.26 128.208 177.876 128.306 176.632 128.349C174.784 128.41 175.522 126.682 175.498 125.79C175.321 118.5 175.266 111.203 175.168 103.906C175.156 102.893 175.248 101.861 174.723 100.927L174.741 100.963L174.723 100.969ZM202.592 47.114C202.64 47.2483 202.683 47.3766 202.732 47.5109C204.823 47.5109 206.97 47.804 209.007 47.4621C217.977 45.9294 226.045 48.4696 233.234 53.4216C237.753 56.5356 242.345 58.8193 247.638 60.2176C250.846 61.0663 253.499 61.97 256.163 59.2101C257.035 58.3064 258.511 58.1782 259.847 57.9461C262.975 57.3966 266.158 57.7935 269.25 57.3538C273.817 56.7005 278.861 57.3905 282.458 53.3788C282.946 52.8354 283.733 52.8171 284.471 52.9392C285.251 53.0674 286.166 53.4032 286.581 52.3713C286.947 51.4737 286.227 50.8753 285.776 50.2098C283.068 46.192 278.873 44.348 274.665 42.5101C270.451 40.6721 266.433 38.4618 263.134 35.2317C260.517 32.6671 258.584 29.5347 256.633 26.4267C254.712 23.3615 253.779 23.1478 250.706 24.8697C248.047 26.3596 245.522 28.0876 242.845 29.5408C239.107 31.568 235.387 33.7662 230.801 32.7892C229.539 32.5206 228.46 33.235 227.405 33.8883C223.526 36.3063 219.831 39.0174 215.66 40.953C211.287 42.9802 206.946 45.0624 202.585 47.1262L202.592 47.114ZM136.329 54.9175C137.945 55.1129 139.793 54.8321 140.196 53.2994C140.537 52.0111 138.519 51.8706 137.543 51.3699C131.829 48.4634 127.127 44.3358 123.249 39.3288C121.627 37.2405 119.889 36.1659 117.297 35.6896C113.01 34.9019 108.553 35.6713 104.357 34.0959C102.833 33.522 101.503 32.9785 101.338 31.1406C101.125 28.7409 99.32 28.5516 97.576 28.5761C96.1673 28.5944 94.7647 29.0218 93.5634 29.8522C86.6116 34.6638 78.9645 38.2297 71.4944 42.1071C66.0304 44.9403 65.0243 50.0632 64.1217 55.3266C64.0486 55.748 64.3169 56.3769 64.634 56.7005C67.866 59.955 71.9639 61.6708 76.1716 63.2462C78.7145 64.1987 80.8245 63.5393 83.0442 62.2814C84.526 61.4449 86.3372 61.2129 87.8617 60.4313C90.5327 59.0696 93.5268 59.2711 96.3442 58.2698C105.211 55.119 114.248 52.3286 123.932 53.5986C128.054 54.1421 132.195 54.484 136.329 54.9175ZM276.098 116.436C278.367 116.906 279.117 118.292 279.94 119.495C281.105 121.186 282.452 121.455 283.898 120.081C285.733 118.329 287.471 116.485 289.544 115.001C290.368 114.415 290.081 113.578 290.075 112.772C290.069 111.844 289.331 110.501 290.624 110.128C291.606 109.847 292.362 110.959 293.039 111.698C293.886 112.626 294.478 114.244 296.155 113.145C299.448 110.983 303.46 109.579 305.826 106.398C310.162 100.554 315.559 96.4936 322.828 94.5702C318.163 90.1983 312.327 87.9573 307.009 86.8949C302.015 85.8996 295.899 87.42 291.173 90.8333C289.563 91.9934 288.624 94.1611 286.947 95.1319C279.702 99.3451 273.403 105.048 265.469 108.242C260.31 110.312 255.682 113.584 251.303 117.077C250.59 117.645 249.608 118.164 249.913 119.526C250.882 123.861 254.242 126.364 258.597 126.004C261.121 125.796 263.664 125.705 266.201 125.68C269.189 125.656 272.018 124.984 274.787 123.916C279.226 122.2 279.233 122.224 276.751 118.072C276.555 117.743 276.464 117.358 276.104 116.436H276.098ZM121.212 25.9322C122.164 27.019 122.475 27.9777 122.584 28.973C122.712 30.1331 123.328 31.5314 121.999 32.2947C120.846 32.948 119.572 33.8517 118.236 32.2275C117.383 31.1895 116.785 32.2397 116.059 32.832C114.016 34.505 108.54 32.6061 108.242 30.0232C107.833 26.4817 105.4 23.5325 104.942 20.3573C104.174 15.0084 99.9359 15.3321 96.8198 14.0498C93.6122 12.7309 90.1363 11.0395 86.514 12.2424C76.8363 15.4664 66.7683 17.5974 58.0175 23.3676C52.5597 26.9641 48.3398 31.0673 47.419 38.0588C48.9862 36.404 50.2059 36.8314 51.8584 38.9319C55.0782 43.0352 57.1028 48.1154 61.7496 51.0524C62.4935 51.5226 62.4509 52.4995 62.8594 53.4216C64.5628 48.3902 67.3822 44.1872 71.3175 40.8126C71.7261 40.4584 71.6102 39.9516 71.7322 39.7013C72.9335 37.2772 71.1712 35.9277 69.9881 34.389C69.2441 33.4243 68.8661 32.4351 69.482 31.2994C69.9332 30.475 70.726 30.1636 71.5553 30.5727C74.9825 32.2641 78.8609 31.9039 82.3978 33.0274C84.3431 33.6441 85.8554 33.1312 87.5446 32.1908C90.1973 30.7132 92.4231 28.3196 95.4294 27.6785C98.1492 27.1045 98.0333 25.9322 97.265 23.8317C96.5759 21.951 96.2405 19.9177 95.9295 17.9271C95.7892 17.0418 96.1002 16.0159 97.1796 15.7595C97.8016 15.6068 98.3443 16.0343 98.6248 16.651C100.497 20.7909 102.942 24.8514 103.339 29.3699C103.607 32.4534 105.083 33.296 107.412 33.4914C113.815 34.0349 120.237 34.5417 126.658 34.7432C130.122 34.8531 133.555 34.9813 136.933 35.7446C140.616 36.575 144.312 37.3871 147.696 39.2433C141.757 32.6122 127.664 25.4498 121.231 25.926L121.212 25.9322ZM153.337 69.743C153.111 69.6514 152.904 69.4743 152.752 69.5171C152.166 69.6636 151.587 69.8468 151.026 70.0727C139.586 74.6217 129.847 81.6376 121.779 90.876C117.919 95.2968 114.035 99.7969 111.547 105.182C110.76 106.88 109.833 108.022 108.144 108.199C104.753 108.553 103.076 110.898 101.473 113.426C101.107 114 100.46 114.58 100.918 115.343C101.424 116.186 102.29 116.033 103.107 115.935C105.278 115.685 107.376 116.002 110.144 116.735C107.272 118.085 104.68 116.851 102.552 118.243C105.674 117.889 108.809 118.188 111.894 117.914C117.87 117.382 123.767 117.62 128.39 111.862C131.591 107.875 135.89 104.505 139.616 100.774C140.586 99.8031 142.745 98.82 141.69 97.2141C140.482 95.3945 139.653 98.6063 138.171 98.0934C138.128 96.7561 139.299 96.2677 140.074 95.6082C146.654 89.9784 151.544 83.1091 155.051 75.2262C155.514 74.176 156.52 72.8998 155.398 71.8984C154.429 71.0375 153.52 72.2098 152.794 72.8143C147.709 77.0214 142.482 81.0697 138.134 86.0889C137.549 86.7667 136.653 87.2918 136.616 88.2932C136.561 89.7342 138.628 88.4641 138.738 90.0151C137.573 91.0042 136.39 92.1155 135.092 93.0681C134.457 93.5322 133.585 93.8741 132.823 93.2635C132.11 92.6895 132.158 91.853 132.293 91.0165C132.573 89.3373 133.457 88.0245 134.622 86.8277C139.885 81.4361 145.513 76.4719 151.502 71.8984C152.246 71.3306 153.392 71.0314 153.331 69.743H153.337ZM28.5332 99.6565C23.3376 106.263 18.264 112.449 13.9953 119.226C12.8549 121.034 12.672 123.134 13.0928 125.393C13.6599 128.477 15.782 130.858 16.4467 133.844C17.8005 139.901 20.7764 145.226 24.0389 150.392C25.5512 152.785 27.3257 155.038 29.1613 157.206C31.0395 159.416 32.125 159.392 34.0946 157.499C34.4544 157.157 34.7654 157.224 35.1557 157.499C37.9913 159.453 41.5282 159.984 44.2846 162.195C46.5287 163.99 49.1021 165.37 51.5291 166.939C48.9862 163.617 47.6385 159.764 45.8518 156.113C41.6075 147.449 36.9242 138.967 33.991 129.753C30.9358 120.154 27.4355 110.556 28.5271 99.6687L28.5332 99.6565ZM208.427 103.992C207.397 104.541 206.738 104.804 206.171 105.201C202.091 108.058 202.213 107.955 205.982 111.27C208.635 113.609 212.251 113.884 214.946 116.039C217.129 117.785 219.709 118.133 222.044 116.674C224.313 115.257 224.685 112.815 224.435 110.189C224.026 105.799 222.91 101.641 221.24 97.5621C220.319 95.309 218.245 93.5077 217.745 91.511C217.014 88.5924 215.452 86.7056 213.574 84.7272C210.58 81.5826 206.781 79.5737 203.177 77.3206C198.201 74.2126 193.054 71.3794 187.334 68.0516C188.743 69.8957 190.621 70.1277 191.383 72.1854C190.316 71.6298 189.712 71.2756 189.078 70.9947C188.139 70.5795 186.98 70.1155 186.279 71.0558C185.59 71.99 186.614 72.796 187.243 73.3456C193.396 78.7067 193.938 87.3284 198.884 93.3856C198.914 93.4222 198.701 93.6665 198.396 94.1122C196.14 91.4317 192.591 89.0625 192.078 86.1561C191.334 81.9124 188.974 79.2562 186.572 76.3375C185.992 75.6353 185.639 74.0233 184.511 74.5179C183.114 75.1346 183.224 76.7833 183.62 78.0533C184.462 80.7705 185.346 83.4877 186.48 86.0889C188.804 91.4072 192.17 95.7914 197.433 98.6979C200.878 100.597 204.829 101.385 208.415 103.973L208.427 103.992ZM189.798 36.3613C189.511 29.7973 187.23 24.7659 182.273 20.9557C180.571 19.649 179.535 19.2582 177.65 20.8336C172.961 24.7598 167.271 24.7109 162.667 21.0107C161.521 20.0887 160.71 19.991 159.49 20.8886C154.368 24.6743 151.373 32.5877 152.855 38.7365C153.02 39.4204 152.971 40.4218 153.709 40.5683C157.148 41.2461 158.435 44.5861 160.996 46.2531C164.088 48.2619 167.314 50.3014 171.284 47.7246C172.723 46.7904 174.54 45.6974 176.431 46.5095C178.431 47.3705 180.144 46.9675 181.925 46.0027C182.992 45.4287 184.224 44.4945 185.248 44.6472C188.072 45.0624 188.438 43.0107 188.968 41.3011C189.499 39.5792 189.59 37.7168 189.804 36.3491L189.798 36.3613ZM218.41 27.538C215.306 28.0448 213.41 30.5544 210.818 31.5436C205.311 33.6441 203.031 37.4726 203.116 43.2061C203.14 45.0135 203.518 45.2211 204.939 44.4212C207.147 43.1756 209.269 41.7224 211.586 40.7393C217.209 38.3457 222.514 35.4026 227.63 32.0809C228.289 31.6535 229.295 31.3238 228.923 30.2919C227.539 26.4878 228.661 21.487 223.776 19.3193C223.386 19.1422 223.258 18.7331 223.459 18.2752C223.618 18.1897 223.807 17.9943 223.953 18.0248C227.155 18.7209 229.874 21.1328 233.417 20.6626C233.893 20.6016 234.485 20.8764 234.491 21.5114C234.533 24.9124 234.979 28.3318 234.076 31.7451C237.509 31.3116 239.68 28.3807 242.687 26.9885C243.376 26.671 244.431 26.5672 244.321 25.4925C244.229 24.5827 243.309 24.3263 242.638 23.8805C240.979 22.7998 238.741 22.8364 237.028 20.8275C240.723 20.1681 243.894 20.8519 246.955 22.1159C248.205 22.6288 249.382 23.3004 250.712 22.6776C255.584 20.4062 260.304 17.7501 265.902 17.3165C262.493 17.0112 259.536 15.5275 256.371 14.8436C250.34 13.543 244.156 12.8652 238.29 10.7892C232.436 8.71922 226.807 8.55436 221.965 13.311C221.465 13.7994 220.831 14.1658 220.246 14.5627C214.336 18.5744 209.129 23.3859 204.256 28.5883C202.713 30.2369 203.006 32.429 204.061 33.5586C205.055 34.6272 206.208 32.6854 207.055 31.8184C208.324 30.5117 209.391 29.0096 210.58 27.6296C211.995 25.9932 213.678 24.6499 215.794 24.137C217.544 23.7157 219.648 23.1844 220.557 25.4437C221.422 27.6052 219.678 28.631 218.264 29.7729C217.501 28.8142 218.831 28.4234 218.422 27.5503L218.41 27.538ZM293.472 51.7607C296.161 40.5744 292.179 30.6338 283.105 25.4986C282.507 26.5672 283.465 27.4342 283.477 28.4234C283.489 29.1256 283.709 29.9377 283.148 30.4628C282.483 31.0857 281.788 30.5361 281.221 30.1575C279.605 29.089 278.184 28.7959 276.629 30.4079C275.787 31.2749 274.628 30.8658 273.525 30.3346C270.701 28.973 267.829 27.709 264.926 26.5244C263.066 25.7673 261.03 26.2313 259.871 27.5625C258.834 28.747 260.682 29.7851 261.347 30.8048C264.768 36.0987 270.177 38.7243 275.598 41.3377C280.129 43.5176 285.099 44.9097 288.52 49.0374C290.02 50.8509 289.807 51.8462 288.16 53.5559C286.581 55.1923 284.55 53.3605 283.08 54.8626C284.056 56.2242 286.434 55.1312 287.014 57.4821C284.16 56.8226 281.507 56.5662 278.964 57.2195C273.708 58.5812 268.384 58.9292 262.993 59.1124C260.402 59.204 257.7 59.491 255.523 61.3167C254.736 61.9761 253.98 62.7821 255.31 63.3805C260.335 65.6397 264.146 69.8834 269.36 71.813C274.732 73.7974 279.922 74.005 284.587 70.1643C286.032 68.9736 289.227 67.728 288.056 66.0611C286.965 64.504 284.19 66.3908 282.483 67.6669C280.544 69.1141 278.623 69.7796 276.049 69.5781C273.403 69.3705 271.244 68.0822 268.805 67.4899C267.933 67.2762 267.146 66.8549 267.225 65.9328C267.311 64.9498 268.329 64.907 269.11 64.7544C273.994 63.7835 278.726 62.2509 283.495 60.8587C289.215 59.1857 291.581 55.8884 291.752 49.8495C291.825 47.2422 290.429 45.0807 290.374 42.565C292.228 45.3433 293.441 48.3352 293.453 51.7546L293.472 51.7607ZM321.761 127.921C320.797 128.172 320.297 128.245 319.846 128.428C312.406 131.487 305.18 134.882 299.07 140.311C294.655 144.225 289.111 146.575 284.666 150.483C283.33 151.656 282.727 152.48 284.648 153.652C286.983 155.081 287.947 157.371 288.3 160.033C288.715 163.184 291.075 165.235 294.27 165.351C294.819 165.37 295.752 164.893 295.594 165.846C295.313 167.47 296.002 167.037 296.801 166.615C301.235 164.265 304.778 160.607 307.211 156.546C309.979 151.924 312.986 147.54 316.309 143.364C317.608 141.733 318.718 140.133 319.212 138.112C320.011 134.888 320.822 131.664 321.755 127.921H321.761ZM286.66 159.508C285.959 155.704 283.867 154.336 281.233 153.622C277.806 152.7 274.397 151.753 271.116 150.373C267.811 148.981 264.615 149.146 261.694 151.405C260.091 152.645 258.255 153.713 256.999 155.246C254.657 158.097 251.029 160.576 252.919 165.217C253.797 167.372 254.535 169.595 255.529 171.696C260.493 182.186 267.792 191.009 275.513 199.521C276.129 200.199 276.72 201.072 278.019 200.986C275.769 195.589 272.567 191.015 269.811 186.185C265.853 179.249 266.28 174.73 271.403 168.655C273.689 165.944 276.287 163.501 278.568 160.784C280.733 158.207 282.922 156.43 286.66 159.508ZM243.662 70.1338C249.986 72.0938 254.797 69.6697 260.048 67.4532C254.712 64.7605 249.87 61.8113 244.205 60.6511C241.321 60.0588 238.491 59.265 236.192 57.2012C225.246 47.3827 212.147 47.7368 198.805 49.3427C197.512 49.5015 196.786 50.5822 196.847 51.718C196.932 53.2933 198.384 52.6827 199.256 52.6827C203.72 52.6827 208.177 52.6033 212.641 52.524C214.184 52.4995 215.727 52.4507 216.946 53.5986C218.38 54.9481 218.727 56.8104 217.837 58.3308C216.709 60.2664 215.483 58.5445 214.33 57.8912C213.647 57.5004 212.855 57.1951 212.08 57.0974C211.025 56.9692 210.178 57.4393 210.495 58.6727C211.184 61.3777 209.714 61.3411 207.811 60.9747C205.122 60.4557 202.39 60.1199 199.731 59.4849C197.835 59.033 195.81 58.7521 194.066 57.3783C195.512 56.4685 196.579 57.3538 197.689 57.6347C200.335 58.3003 202.951 59.2834 205.72 58.2331C206.275 58.0255 207.019 57.8851 207.013 57.1523C207 56.4013 206.226 56.2242 205.671 56.1448C201.732 55.5709 197.774 55.7541 193.841 56.1693C192.767 56.2853 192.078 57.2012 191.895 58.282C191.725 59.2772 192.664 59.4116 193.28 59.5948C197.268 60.7488 201.299 61.7685 205.269 62.9714C208.531 63.9606 211.812 63.9178 215.702 62.9042C213.8 65.249 213.983 66.2809 215.916 66.3541C218.8 66.458 221.459 67.7708 224.27 67.7463C230.381 67.6975 236.588 66.4396 242.101 70.433C242.668 69.0042 240.845 68.9187 241.699 67.7646C243.235 68.1188 244.809 68.479 246.376 68.8393L246.309 69.3644C245.662 69.5537 245.016 69.743 243.656 70.146L243.662 70.1338ZM37.4303 90.9493C35.8692 93.3734 34.6069 95.1625 33.5397 97.0614C32.7531 98.4658 32.8262 99.5405 34.9545 99.5893C38.3267 99.6687 40.8879 101.415 43.0467 103.894C44.2297 105.256 45.492 106.55 46.7604 107.912C47.2422 106.862 45.3761 106.056 46.5348 105.152C47.2056 104.627 48.0471 105.164 48.4069 105.701C50.6937 109.115 54.3892 108.864 57.7309 109.158C60.1397 109.371 61.152 110.428 62.146 112.504C63.8229 116.008 65.4084 120.063 70.2198 120.234C73.9824 120.368 77.6717 119.581 81.0318 117.761C81.8794 117.303 82.8002 116.723 83.0381 115.3C79.989 114.867 78.8487 112.149 77.0192 110.177C76.1594 109.255 74.952 107.808 74.0617 110.012C72.8969 112.907 70.4211 113.389 67.8294 114.25C67.7867 110.464 70.9699 108.529 72.0676 105.457C72.9274 103.051 72.3054 102.233 71.0797 101.024C69.8601 99.8092 68.4209 98.82 67.1525 97.6476C59.5969 90.6989 50.2729 90.0334 40.7599 90.1067C42.1381 90.1677 43.1503 92.1888 44.9676 90.8394C45.3822 90.5341 47.4678 91.9568 46.3336 92.9032C45.3396 93.7336 45.6323 93.5993 46.2482 94.2404C47.8581 95.9257 49.5534 97.6049 49.6997 100.383C47.3275 99.5954 45.1383 98.8444 42.9369 98.1483C41.205 97.5988 38.9304 98.649 37.6925 97.2202C36.4058 95.7364 38.0645 93.5993 37.4425 90.9432L37.4303 90.9493ZM44.2968 179.041C42.4978 178.333 41.2965 179.047 40.0647 179.414C37.0522 180.299 33.9788 181.044 31.0517 182.161C22.7583 185.324 13.2391 186.747 10.312 197.469C9.69611 199.722 8.7448 201.829 9.0863 204.18C9.28753 205.566 9.62903 207.013 10.2632 208.246C11.3304 210.31 7.70203 209.932 8.66553 211.947C11.9951 209.968 14.7453 207.184 18.2944 205.657C18.8982 205.401 19.2153 205.004 18.6969 204.247C16.6175 201.169 17.0931 197.439 16.1967 194.05C15.9955 193.293 16.1052 192.548 16.9651 192.322C17.959 192.053 18.081 192.932 18.3127 193.586C19.5202 196.993 20.0263 200.571 20.7764 204.161C23.7523 203.319 26.0512 201.102 29.0332 200.84C30.6553 200.699 31.5334 200.046 32.2896 198.666C35.918 192.016 39.1744 185.141 44.2968 179.047V179.041ZM325.377 207.666C325.359 213.174 324.359 213.925 319.401 212.331C316.224 211.312 313.101 210.115 309.973 208.936C308.125 208.24 306.619 208.362 305.564 210.249C303.57 213.809 301.716 217.485 301.478 221.588C301.235 225.801 302.607 230.094 305.942 232.402C308.522 234.191 311.315 235.821 313.888 237.726C314.413 238.117 315.016 238.667 315.84 238.013C315.663 235.614 315.455 233.104 317.041 231.046C320.474 226.595 322.743 221.509 324.944 216.416C326.072 213.815 327.036 210.994 325.377 207.666ZM129.414 55.4976C127.536 55.29 125.658 55.0336 123.773 54.887C115.974 54.2642 108.455 55.2106 101.271 58.5751C99.0334 59.6253 99.57 60.6145 100.637 62.0067C101.009 62.489 102.4 63.0447 101.662 63.3805C99.253 64.4674 101.674 64.5895 101.918 64.7483C102.668 65.2367 103.516 65.6459 104.381 65.8779C107.089 66.6045 109.358 68.6683 112.608 67.9295C114.175 67.5754 116.572 67.5082 117.322 70.0666C117.37 70.2437 118.047 70.3048 118.438 70.2987C122.688 70.2681 126.993 70.6528 131.042 68.882C135.403 66.9831 139.75 65.0536 144.074 63.0691C144.824 62.7211 146.178 62.5318 145.934 61.4144C145.635 60.0405 144.251 60.1199 143.141 60.2664C139.116 60.7915 135.104 61.396 131.085 61.9578C129.384 62.1959 127.993 62.5623 129.896 64.4857C130.311 64.907 130.53 65.4138 129.945 65.7313C128.097 66.7205 126.329 66.2992 124.914 64.9314C123.42 63.4904 124.438 62.3913 125.731 61.4998C127.188 60.4985 128.817 59.7718 130.579 60.0955C133.286 60.59 135.701 59.5459 138.683 59.1246C135.116 56.9508 131.323 57.4699 127.92 56.5723C128.146 55.4549 129.054 55.9739 129.414 55.4915V55.4976ZM283.977 193.287C282.788 193.348 281.672 192.829 281.099 193.671C280.495 194.569 281.446 195.344 281.879 196.108C282.58 197.341 283.282 198.58 284.062 199.765C285.8 202.391 287.239 204.955 291.234 205.102C299.728 205.413 308.211 208.491 316.657 204.613C317.931 204.027 319.041 203.899 317.998 202.244C314.626 196.877 310.601 192.206 304.406 190.026C302.436 189.33 300.295 189.373 298.478 190.398C293.831 193.012 289.008 194.386 283.971 193.287H283.977ZM54.9807 167.763C56.615 169.632 58.792 170.48 61.0605 170.12C63.0973 169.797 62.1886 167.617 62.5118 166.249C62.896 164.619 63.6644 163.233 64.7681 161.999C65.8963 160.741 67.5062 159.935 68.8112 160.979C72.3969 163.855 78.5011 164.784 77.501 171.494C77.4949 171.549 77.8181 171.653 78.2145 171.836C79.2572 170.169 80.3366 168.484 81.3672 166.774C81.916 165.858 81.6111 165.071 80.9403 164.295C76.4765 159.117 71.4334 154.58 65.6402 150.978C59.8836 147.4 53.6025 148.041 49.0716 152.223C47.8642 153.341 47.6629 154.074 48.8765 155.435C51.7853 158.696 55.0356 161.572 58.3163 164.429C59.4323 165.4 60.4141 166.731 59.3896 168.13C58.3834 169.51 57.2492 168.16 56.2125 167.708C55.8649 167.556 55.5417 167.22 54.9746 167.763H54.9807ZM35.4789 203.081C37.723 203.734 38.7231 201.994 40.1745 201.542C44.4736 200.211 48.724 198.867 51.1389 194.526C51.4804 193.909 52.5841 193.433 53.2915 194.007C54.1208 194.679 53.4683 195.582 52.9622 196.132C51.9743 197.207 51.3645 198.697 49.7607 199.136C49.2667 199.27 48.7911 199.582 48.907 200.205C49.0167 200.821 49.5656 200.944 50.0778 200.919C50.9864 200.882 51.9072 200.852 52.7976 200.687C60.4019 199.289 64.4937 193.451 68.6039 187.803C69.8845 186.051 71.5309 184.237 71.7871 181.52C67.6464 183.102 63.7863 183.615 59.6335 183.083C55.5844 182.558 51.4621 183.92 48.7423 186.814C44.0651 191.791 40.0464 197.39 35.4789 203.075V203.081ZM186.09 55.3938C190.487 50.7288 193.859 46.1126 195.31 40.2752C196.018 37.4298 195.262 34.6088 195.335 31.7878C195.408 29.0584 194.621 26.5611 194.133 23.966C193.713 21.7007 190.353 20.4489 192.127 17.6768C189.462 14.8375 186.566 12.3462 182.577 10.7647C183.037 12.8286 183.909 14.524 185.194 15.8511C184.395 16.7487 182.669 14.923 182.23 16.8647C181.84 18.5805 182.584 19.6551 183.864 20.7664C191.761 27.6174 193.316 37.9488 187.517 46.5339C185.663 49.2756 185.736 51.9073 186.084 55.3999L186.09 55.3938ZM5.64087 206.091C2.9577 211.77 2.09786 217.821 1.31121 223.817C0.622121 229.062 0.829457 234.38 4.05536 239.039C4.50662 239.692 4.74444 240.712 5.63477 240.718C6.61046 240.724 6.8239 239.638 7.03123 238.935C8.39111 234.374 9.66562 229.795 10.9218 225.203C11.2572 223.982 10.9401 222.785 10.4279 221.655C8.17768 216.679 5.70794 211.77 5.63477 206.085L5.64087 206.091ZM337.445 110.006C337.463 105.756 333.658 101.806 329.493 101.769C326.975 101.745 324.932 104.022 325.31 106.556C325.523 107.979 325.182 109.359 325.164 110.708C325.121 114.519 325.2 118.384 326.194 122.121C326.401 122.902 326.633 123.635 327.871 123.177C331.316 121.907 337.421 113.621 337.439 110.006H337.445ZM179.443 48.8848C176.906 47.9322 174.735 47.2178 172.247 48.5184C169.174 50.1243 166.369 52.1332 163.399 53.8917C162.972 54.1421 162.783 54.4535 162.722 55.0763C162.484 57.4699 159.783 59.6192 162.149 62.3242C162.374 62.5806 161.557 63.7347 161.234 64.4796C160.813 65.4505 159.813 66.2198 160.143 67.6547C161.954 67.4655 162.466 65.8168 163.472 64.8337C164.527 63.8018 164.253 61.4815 167.32 63.0264C169.339 64.0461 168.808 64.3025 168.259 65.4932C168.015 66.0305 167.363 66.4641 167.631 67.4532C172.851 61.9151 175.26 54.9481 179.449 48.8848H179.443ZM176.443 10.8563C176.65 7.2843 176.431 4.12137 174.565 2.61318C171.064 -0.213919 164.704 1.26985 161.917 4.78693C158.716 8.82913 158.819 14.7154 162.198 18.1958C162.746 18.7637 163.472 19.1667 164.112 19.649C165.82 17.3104 168.058 19.7589 169.979 19.014C170.759 18.7087 171.692 18.782 172.016 17.689C167.588 16.9563 164.747 14.8497 164.442 12.0409C164.155 9.42142 165.259 7.30872 167.68 6.41114C171.509 4.98843 173.936 7.36979 176.449 10.8624L176.443 10.8563ZM148.135 36.6177C148.446 34.2791 148.135 31.9466 148.8 29.6996C150.312 24.6255 152.703 20.0032 157.27 17.2249C159.795 15.6862 158.886 13.9338 158.13 12.6759C156.947 10.7098 155.758 12.8042 154.807 13.4331C149.135 17.2127 145.788 22.6532 144.105 29.1622C142.964 33.5769 143.556 34.5844 148.135 36.6177ZM153.349 54.1665C153.66 54.0383 154.752 54.5695 154.874 53.3239C154.965 52.3713 154.032 52.3896 153.392 52.1332C150.495 50.9791 147.08 51.3394 144.538 49.2267C143.775 48.5978 141.928 48.3291 142.586 47.0346C143.245 45.7279 144.97 45.6974 146.428 45.9417C147.282 46.0821 147.788 46.7721 148.361 47.3399C149.751 48.7199 151.465 49.6114 153.191 50.4601C153.874 50.796 154.618 50.7654 155.038 49.99C155.404 49.3122 155.368 48.6649 154.703 48.091C150.819 44.751 145.971 43.7679 141.348 44.5312C139.141 44.8975 137.964 44.4335 136.433 43.5786C135.549 43.084 134.75 42.4124 133.829 42.0216C132.347 41.3988 130.311 39.5486 129.365 41.3927C128.707 42.6871 131.146 44.006 132.756 44.5495C137 45.9783 140.641 48.1276 142.989 52.1271C143.281 52.6217 144.19 52.8964 144.861 53.0002C147.55 53.4277 150.251 53.7513 153.343 54.1665H153.349ZM336.036 256.362C335.451 253.956 335.103 252.271 334.628 250.628C332.865 244.59 328.81 240.761 322.987 238.679C322.224 238.404 320.938 238.074 321.401 239.381C322.675 242.971 322.45 247.533 326.151 249.712C329.383 251.611 332.493 253.645 336.043 256.362H336.036ZM184.901 46.7476C180.657 48.6955 179.175 52.0538 178.083 55.748C177.4 58.0499 176.888 60.3885 174.961 62.2081C171.168 65.7924 171.43 67.4593 175.967 71.0131C176.711 68.7783 174.79 67.1907 174.363 65.1818C175.424 65.1513 175.931 65.6947 176.461 66.1343C177.65 67.1052 178.681 66.7694 178.187 65.3406C177.168 62.3852 179.583 60.5962 180.096 58.111C180.407 60.0832 180.193 62.1654 182.236 63.7774C184.248 58.1537 184.169 52.5056 184.901 46.7476ZM229.759 115.63C232.009 119.654 232.82 124.068 237.107 126.206C236.259 124.789 235.405 123.378 234.399 121.699C237.314 121.931 238.784 124.832 241.18 124.624C243.943 124.386 245.248 121.956 246.785 119.355C240.924 118.579 235.57 117.193 229.752 115.624L229.759 115.63ZM288.825 168.411C287.063 167 287.435 165.174 287.361 163.501C287.294 162.005 286.648 160.442 285.203 160.943C283.148 161.651 281.891 163.91 281.672 165.864C281.501 167.403 283.3 168.752 285.129 169.07C286.331 169.278 287.538 169.064 288.831 168.411H288.825ZM173.949 12.2302C173.815 8.81692 172.016 6.89351 169.351 7.27209C166.722 7.64456 165.283 9.64123 165.808 12.2668C166.058 13.5186 166.637 14.7703 167.954 14.9107C169.442 15.0634 169.564 13.6102 169.601 12.5721C169.674 10.5022 171.662 10.838 172.662 10.3312C174.052 9.62292 173.229 11.7112 173.949 12.2363V12.2302ZM165.991 50.6983C164.856 50.7166 164.027 50.6006 163.1 49.5259C161.74 47.9444 160.679 48.1643 160.765 50.5334C160.777 50.9486 160.673 51.3333 159.954 51.4615C158.124 49.6053 160.136 45.7279 156.539 44.4029V51.779C157.185 51.1257 156.606 49.7396 157.984 49.7213C158.886 54.9481 159.24 55.0824 163.966 52.0477C164.649 51.6081 165.314 51.1501 165.985 50.6983H165.991ZM77.5193 65.023C72.5432 63.6064 68.6465 61.5914 64.9755 58.7582C65.878 65.0597 70.8906 67.7463 77.5193 65.023Z" fill="#FBFFEE"/>
<path d="M174.705 100.933C174.516 108.816 175.479 116.741 174.065 124.6C172.753 121.516 173.546 118.091 171.753 115.129C171.753 118.872 171.784 122.615 171.735 126.352C171.723 127.519 171.936 129.033 170.119 129.057C168.424 129.082 167.838 127.903 167.912 126.407C168.088 122.963 168.314 119.526 168.57 116.088C168.613 115.502 168.759 114.763 169.137 114.378C172.333 111.136 171.534 107.027 171.607 103.137C171.711 97.6784 171.467 92.2073 172.503 86.7302C174.241 91.322 173.363 96.335 174.723 100.97L174.705 100.933Z" fill="#F1F1F9"/>
<path d="M234.411 59.8636C228.204 62.4099 222.953 65.2858 216.056 63.8448C218.331 62.3427 220.398 62.3122 222.185 61.5917C224.215 60.7796 226.411 60.4926 228.313 59.1309C230.064 57.8792 231.844 59.1187 234.411 59.8575V59.8636Z" fill="#F1F1F9"/>
</g>
<defs>
<clipPath id="clip0_18_93">
<rect width="339" height="259" fill="white"/>
</clipPath>
</defs>
</svg>
