<svg width="109" height="49" viewBox="0 0 109 49" fill="none" xmlns="http://www.w3.org/2000/svg">
<g clip-path="url(#clip0_49_426)">
<path d="M89.3304 38.3556C84.982 38.3556 80.6336 38.38 76.2853 38.3459C72.8182 38.3167 71.4188 36.481 71.9127 33.0578C72.2177 30.9494 70.9636 29.0698 70.6053 27.0296C69.5932 21.313 68.3875 15.6256 67.2786 9.92366C66.9154 8.05384 66.1552 6.79756 63.9277 7.16763C63.2934 7.27475 62.2378 7.37214 62.2281 6.34958C62.2184 5.31729 63.245 5.54614 63.9181 5.49258C67.6999 5.20529 67.8839 5.22477 68.8766 8.74042C69.3511 10.4252 70.4309 10.3376 71.6415 10.3376C82.2703 10.3376 92.8992 10.3132 103.533 10.3522C109.465 10.3716 109.726 9.38317 108.235 16.2538C107.31 20.5096 106.443 24.7897 105.823 29.0991C105.528 31.1734 104.54 31.5678 102.763 31.5581C94.7102 31.5142 86.6575 31.5386 78.6047 31.5435C77.8784 31.5435 77.1375 31.485 76.4354 31.6165C74.8955 31.9087 73.5155 32.7364 73.593 34.4066C73.6704 36.1498 75.065 36.6514 76.7356 36.6416C84.8707 36.5978 93.0009 36.593 101.136 36.6611C102.39 36.6709 104.666 35.9892 104.656 37.5473C104.647 39.1201 102.395 38.2729 101.17 38.3118C97.2282 38.4384 93.2817 38.3605 89.3353 38.3556H89.3304ZM89.2578 20.7725C89.2578 23.1195 89.3014 25.4665 89.2432 27.8087C89.2045 29.2597 89.7856 29.9074 91.2334 29.81C91.9549 29.7613 92.6813 29.7564 93.4028 29.8148C94.9426 29.9415 95.6883 29.4886 95.8191 27.7113C96.1338 23.4653 96.6859 19.2338 97.1894 15.0024C97.4412 12.8745 96.8118 11.7497 94.4584 12.0516C93.3495 12.1928 92.2116 12.1149 91.0882 12.071C89.7372 12.0175 89.2239 12.6554 89.2481 13.9749C89.2917 16.2392 89.2578 18.5034 89.2578 20.7676V20.7725ZM73.8205 12.1003C73.8205 12.1003 73.8205 12.0856 73.8205 12.0759C73.501 12.0759 73.1814 12.0759 72.8569 12.0759C69.6368 12.0759 69.6659 12.0759 70.2857 15.2215C71.0023 18.8491 71.7432 22.4719 72.3194 26.1239C72.9054 29.8392 72.8182 29.8538 76.6291 29.81C76.9487 29.81 77.2731 29.7856 77.5927 29.8051C79.0212 29.883 79.4134 29.065 79.2875 27.8184C78.8081 23.0221 78.3142 18.2307 77.8445 13.4344C77.7573 12.5531 77.3215 12.1149 76.4644 12.1051C75.5831 12.0954 74.7018 12.1051 73.8205 12.1051V12.1003ZM87.5339 21.0695C87.5339 19.935 87.5533 18.8053 87.5339 17.6708C87.4032 11.2286 88.6283 12.2171 81.9023 12.0418C79.8395 11.9883 79.4182 12.9378 79.6168 14.7005C80.1107 19.0975 80.6433 23.4896 81.0017 27.8963C81.1227 29.3961 81.7135 29.9074 83.0935 29.81C83.6552 29.771 84.2266 29.7467 84.7787 29.8197C86.8269 30.0827 87.747 29.3425 87.5727 27.1367C87.4129 25.1257 87.5388 23.0952 87.5388 21.0744L87.5339 21.0695ZM103.242 12.071C102.923 12.071 102.603 12.071 102.279 12.071C99.0102 12.0759 99.0973 12.0856 98.8891 15.3335C98.647 19.0196 98.2983 22.7008 97.8577 26.3722C97.4461 29.8246 97.3783 29.6688 100.831 29.8635C103 29.9853 104.022 29.3377 104.356 27.1221C104.927 23.3094 105.765 19.5406 106.399 15.7328C107.01 12.0808 106.961 12.071 103.237 12.071H103.242Z" fill="#12381D"/>
<path d="M36.7965 19.0196C37.2855 29.0504 28.2789 37.3137 18.5701 37.2455C7.90735 37.1724 -0.159904 29.177 -0.000108416 18.4645C0.174214 7.30401 8.11557 0.0584625 18.633 3.06694e-05C28.2256 -0.0535319 37.4695 7.72765 36.7965 19.0196ZM35.0775 18.6301C35.0775 9.38809 27.4751 1.47544 18.4684 1.73351C9.56342 1.98671 1.87386 8.66743 1.79638 18.6885C1.72859 27.76 9.54889 35.439 18.4103 35.4779C27.5332 35.5169 35.0726 27.8915 35.0775 18.6301Z" fill="#12381D"/>
<path d="M48.3648 46.8087C48.3648 47.5586 48.297 48.328 47.5029 48.6542C46.641 49.0097 45.7354 49.0097 45.0333 48.3036C40.9948 44.2572 36.9515 40.2157 32.9857 36.1011C32.2739 35.3658 31.8139 34.2654 32.8307 33.2915C33.8621 32.3079 35.0776 32.2251 36.0654 33.1941C40.0264 37.0896 43.9099 41.0629 47.8176 45.0071C48.3115 45.5038 48.389 46.1417 48.3648 46.8039V46.8087Z" fill="#12381D"/>
<path d="M75.9224 40.5274C78.4889 40.4934 80.0287 41.9542 80.0674 44.457C80.111 47.1156 78.5228 48.9416 76.1113 49.0001C73.7434 49.0585 71.5934 46.8965 71.6515 44.5105C71.7096 42.183 73.448 40.5615 75.9224 40.5274Z" fill="#12381D"/>
<path d="M100.768 40.5273C103.475 40.5322 105.174 42.0855 105.174 44.5494C105.174 46.8526 103.121 48.9854 100.923 48.9659C98.6519 48.9464 96.7634 47.1009 96.7247 44.8562C96.6763 42.2365 98.2791 40.5176 100.763 40.5225L100.768 40.5273Z" fill="#12381D"/>
<path d="M31.4797 18.6057C32.1334 25.7539 25.3542 32.123 18.5265 31.8698C10.5125 31.5727 5.31191 26.2847 5.28285 18.5181C5.24896 10.7418 11.4229 5.41961 18.265 5.31736C25.974 5.20536 32.0268 11.6377 31.4797 18.6009V18.6057ZM29.7606 18.4889C29.751 12.5337 24.5019 7.13849 18.6379 7.05084C12.7206 6.96319 6.96797 12.7333 7.05513 18.6642C7.14714 24.8141 12.3865 30.0779 18.4587 30.1217C24.7053 30.1655 29.7752 24.9456 29.7655 18.4889H29.7606Z" fill="#12381D"/>
<path d="M18.6427 24.298C17.8243 24.3077 17.6936 23.6796 17.7323 23.1391C17.8776 21.2838 17.1609 20.4268 15.2531 20.6265C14.6284 20.6898 13.7762 20.5924 13.8101 19.7646C13.8391 18.9563 14.701 18.8881 15.3257 18.9612C17.3304 19.1949 17.8534 18.1529 17.7226 16.3853C17.6791 15.8253 17.7711 15.0998 18.449 15.0462C19.34 14.9732 19.4078 15.8059 19.3593 16.4145C19.2141 18.2356 19.8484 19.1706 21.7902 18.9758C22.3325 18.9222 23.0153 19.044 23.0007 19.8084C22.9862 20.5632 22.3034 20.6557 21.7563 20.6167C20.0372 20.4853 19.1995 21.1524 19.3593 22.9686C19.4078 23.5043 19.3593 24.1324 18.6427 24.298Z" fill="#12381D"/>
</g>
<defs>
<clipPath id="clip0_49_426">
<rect width="109" height="49" fill="white"/>
</clipPath>
</defs>
</svg>
