<svg width="1309" height="826" viewBox="0 0 1309 826" fill="none" xmlns="http://www.w3.org/2000/svg">
<g clip-path="url(#clip0_12_12)">
<path d="M0 65.0466V3.73755H264.88V65.0466C258.654 58.8173 251.248 52.5225 242.662 46.1621C234.077 39.8017 225.032 34.0642 215.594 28.9825C206.124 23.8679 196.555 19.573 186.822 16.0977C177.122 12.6224 168.012 10.4914 159.557 9.73731V377.526H105.389V9.70453C96.9338 10.4586 87.8238 12.5569 78.1238 16.0649C68.4239 19.5402 58.8223 23.8679 49.3517 28.9497C39.8812 34.0642 30.8694 39.8017 22.2836 46.1293C13.6979 52.4569 6.29185 58.7845 0.0655401 65.0138L0 65.0466Z" fill="#FBFFEE"/>
<path d="M302.238 3.73755H356.407V190.615H512.557V3.73755H566.725V377.493H512.557V196.582H356.407V377.493H302.238V3.73755Z" fill="#FBFFEE"/>
<path d="M697.838 180.911C710.291 180.911 721.564 182.288 731.657 185.009C741.75 187.763 751.155 190.746 759.872 193.992C768.589 197.238 777.044 200.222 785.269 202.976C793.494 205.73 801.949 207.074 810.666 207.074C814.893 207.074 818.694 206.123 822.07 204.287C825.445 202.418 827.116 199.369 827.116 195.14C827.116 189.665 823.577 184.747 816.466 180.386C809.355 176.026 800.572 172.157 790.119 168.813C779.665 165.469 768.392 162.387 756.3 159.666C744.208 156.912 733.197 154.322 723.235 151.83C710.029 148.584 697.085 145.273 684.37 141.929C671.655 138.585 660.284 134.159 650.191 128.651C640.097 123.175 632.003 116.061 625.908 107.34C619.813 98.619 616.765 87.4063 616.765 73.702C616.765 67.9645 618.436 60.9484 621.812 52.5881C625.187 44.2277 631.512 36.1297 640.851 28.2939C650.191 20.4582 663.2 13.7699 679.88 8.29473C696.56 2.81954 718.352 0.0655518 745.257 0.0655518C754.956 0.0655518 765.869 0.491764 777.928 1.37697C790.02 2.26219 802.014 3.67197 813.975 5.67189C825.936 7.67181 837.013 10.2291 847.237 13.3437C857.461 16.4583 865.424 20.3926 871.159 25.1137L855.856 81.1771C850.383 77.21 843.337 73.5053 834.752 70.1611C826.166 66.7842 816.564 63.8007 805.979 61.1779C795.395 58.555 784.187 56.5223 772.357 55.0142C760.527 53.5061 748.632 52.7848 736.671 52.7848C709.275 52.7848 689.482 56.0305 677.259 62.4893C665.068 68.9808 658.94 78.8165 658.94 92.0291C658.94 103.734 663.725 113.143 673.326 120.257C682.895 127.372 694.987 133.273 709.57 137.994C724.153 142.716 739.817 146.912 756.628 150.519C773.439 154.125 789.136 158.42 803.686 163.403C818.268 168.387 830.328 174.55 839.929 181.894C849.498 189.238 854.315 199.14 854.315 211.598C854.315 218.581 852.939 224.876 850.219 230.483C847.466 236.089 843.796 240.876 839.208 244.876C834.588 248.875 829.312 251.99 823.315 254.219C817.351 256.449 811.124 257.727 804.636 257.957C790.938 258.219 778.125 256.58 766.164 253.105C754.203 249.629 742.635 245.761 731.428 241.531C720.22 237.302 709.013 233.302 697.805 229.565C686.598 225.827 674.899 223.958 662.676 223.958C645.734 223.958 633.478 226.712 625.875 232.187C618.273 237.663 614.471 245.269 614.471 254.973C614.471 268.678 619.157 280.153 628.497 289.366C637.836 298.578 650.158 305.988 665.494 311.594C680.798 317.201 698.363 321.2 718.156 323.561C737.949 325.921 758.299 327.102 779.239 327.102C794.936 327.102 810.371 325.79 825.576 323.167C840.748 320.545 854.709 313.889 867.423 303.168L845.009 368.215C835.046 372.936 825.019 376.313 814.926 378.313C804.832 380.313 793.429 381.296 780.747 381.296C758.332 381.296 736.671 379.067 715.731 374.575C694.823 370.084 676.374 362.74 660.448 352.511C644.521 342.281 631.741 328.971 622.172 312.512C612.571 296.054 607.786 275.891 607.786 251.957C607.786 239.99 610.08 229.597 614.701 220.745C619.321 211.893 625.646 204.549 633.74 198.681C641.834 192.812 651.37 188.386 662.316 185.402C673.261 182.419 685.091 180.911 697.805 180.911H697.838Z" fill="#FBFFEE"/>
<path d="M7.47168 826V452.244H201.372C208.582 452.244 215.562 452.933 222.279 454.31C228.997 455.687 234.994 457.982 240.205 461.227C245.448 464.473 249.61 468.703 252.723 473.948C255.836 479.194 257.376 485.653 257.376 493.39C257.376 505.849 254.066 516.307 247.48 524.799C240.893 533.257 232.602 540.372 222.64 546.109C212.678 551.847 201.962 556.568 190.525 560.306C179.056 564.043 168.34 567.42 158.411 570.403C148.448 573.387 140.158 576.272 133.571 578.993C126.984 581.747 123.674 584.96 123.674 588.698C123.674 595.681 127.541 601.288 135.242 605.517C142.943 609.746 152.61 613.812 164.178 617.648C175.746 621.516 188.264 625.942 201.733 630.926C215.168 635.909 227.686 642.565 239.287 650.925C250.855 659.285 260.522 669.973 268.223 683.055C275.924 696.136 279.791 712.89 279.791 733.315C279.791 746.757 277.005 759.183 271.402 770.494C265.798 781.838 258.195 791.608 248.627 799.837C239.025 808.066 228.08 814.492 215.758 819.082C203.437 823.705 190.558 826 177.09 826H7.47168ZM198.357 773.674C209.302 773.674 219.396 772.92 228.604 771.445C237.812 769.937 245.776 767.478 252.526 763.97C259.244 760.494 264.553 756.003 268.42 750.527C272.287 745.052 274.22 738.2 274.22 729.971C274.22 717.775 269.534 708.3 260.194 701.579C250.855 694.858 239.156 689.481 225.065 685.514C211.007 681.547 195.801 678.17 179.482 675.416C163.162 672.662 147.99 669.121 133.899 664.76C119.84 660.4 108.109 654.531 98.7691 647.187C89.4296 639.843 84.7435 629.549 84.7435 616.336C84.7435 608.369 87.5945 601.746 93.3292 596.534C99.064 591.288 106.273 586.567 114.99 582.337C123.707 578.108 133.112 573.879 143.205 569.617C153.298 565.387 162.703 560.338 171.42 554.47C180.137 548.601 187.347 541.388 193.081 532.798C198.816 524.209 201.667 513.422 201.667 500.472C201.667 491.751 199.734 484.571 195.867 478.964C192 473.358 186.724 468.998 180.006 465.883C173.288 462.768 165.358 460.637 156.281 459.523C147.203 458.408 137.405 457.851 126.951 457.851H61.575V773.674H198.292H198.357Z" fill="#FBFFEE"/>
<path d="M294.767 826C304.467 794.1 313.315 764.953 321.278 738.528C329.241 712.103 337.106 686.333 344.807 661.154C352.508 635.975 360.307 610.402 368.139 584.337C375.971 558.306 384.622 529.717 394.093 498.57C396.092 492.079 398.517 485.849 401.368 479.882C404.219 473.916 407.725 468.539 411.821 463.818C415.918 459.096 420.669 455.359 426.011 452.605C431.352 449.884 437.415 448.507 444.133 448.507C450.851 448.507 456.88 449.884 462.255 452.605C467.596 455.359 472.348 459.096 476.444 463.818C480.54 468.539 484.047 473.916 486.898 479.882C489.749 485.849 492.174 492.079 494.173 498.57C503.643 529.717 512.36 558.306 520.323 584.337C528.286 610.369 536.085 635.975 543.655 661.154C551.258 686.333 559.025 712.103 566.988 738.528C574.951 764.953 583.799 794.1 593.499 826H536.348C528.385 800.099 521.142 776.166 514.687 754.232C508.198 732.299 501.972 711.021 496.008 690.333H371.219C370.728 705.775 370.531 720.725 370.662 735.184C370.793 749.642 371.023 762.92 371.416 774.986C371.776 787.083 372.399 797.542 373.284 806.394C374.169 815.246 375.086 821.771 376.069 826H294.636H294.767ZM494.271 684.727C489.781 670.039 485.423 655.449 481.196 640.991C476.968 626.532 472.544 611.713 467.924 596.501C463.303 581.321 458.453 565.682 453.341 549.585C448.229 533.52 442.822 516.504 437.087 498.57C435.842 494.341 434.105 490.964 431.844 488.472C429.616 485.981 426.371 484.735 422.144 484.735C413.689 484.735 406.447 490.702 400.483 502.669C394.519 514.635 389.505 530.143 385.54 549.191C381.542 568.24 378.429 589.681 376.2 613.484C373.972 637.286 372.465 661.023 371.711 684.694H494.238L494.271 684.727Z" fill="#FBFFEE"/>
<path d="M627.252 452.244H816.663C826.887 452.244 835.768 454.179 843.37 458.047C850.973 461.916 857.265 466.899 862.246 472.998C867.227 479.096 870.963 485.948 873.453 493.554C875.944 501.16 877.189 508.832 877.189 516.537C877.189 531.487 874.141 544.273 868.046 554.863C861.951 565.453 854.283 574.436 845.074 581.78C835.866 589.124 825.969 595.222 815.385 600.107C804.8 604.959 794.903 609.222 785.695 612.828C776.487 616.434 768.818 619.811 762.723 622.926C756.628 626.041 753.58 629.483 753.58 633.188C753.58 637.417 756.431 645.089 762.166 656.171C767.901 667.252 775.176 679.907 784.024 694.104C792.872 708.3 802.703 723.02 813.549 738.2C824.396 753.413 834.981 767.346 845.304 780.067C855.626 792.788 865.162 803.247 873.879 811.476C882.596 819.705 889.183 823.803 893.672 823.803V826.033H832.032C826.559 826.033 822.135 825.738 818.76 825.082C815.385 824.459 812.337 823.213 809.617 821.344C806.864 819.476 804.079 816.623 801.228 812.754C798.377 808.886 794.445 803.837 789.463 797.608C781.73 787.378 773.21 775.51 763.87 761.904C754.531 748.331 745.945 734.856 738.08 721.545C730.248 708.234 723.628 695.874 718.287 684.53C712.945 673.186 710.258 664.531 710.258 658.564C710.258 652.597 713.044 647.22 718.647 642.499C724.251 637.778 731.231 633.024 739.555 628.303C747.911 623.582 756.923 618.27 766.656 612.435C776.355 606.566 785.4 599.55 793.756 591.321C802.113 583.092 809.06 573.256 814.664 561.781C820.267 550.339 823.053 536.372 823.053 519.914C823.053 511.193 821.939 503.029 819.677 495.423C817.449 487.817 813.812 481.227 808.831 475.62C803.85 470.014 797.427 465.654 789.595 462.539C781.762 459.424 772.357 457.883 761.38 457.883H681.421V826.033H627.252V452.277V452.244Z" fill="#FBFFEE"/>
<path d="M1178.59 190.615H917.515V209.336H1178.59V190.615Z" fill="#FBFFEE"/>
</g>
<defs>
<clipPath id="clip0_12_12">
<rect width="1309" height="826" fill="white"/>
</clipPath>
</defs>
</svg>
