<svg width="332" height="47" viewBox="0 0 332 47" fill="none" xmlns="http://www.w3.org/2000/svg">
<path d="M17.3832 2.104L7.68719 35.8L10.2312 36.76V37H0.919187V36.76L4.37519 35.8L13.2552 4.984H10.0872V4.744L17.2872 2.104H17.3832ZM15.5749 37.192C27.8629 36.76 36.1669 24.712 36.1669 11.368C36.1669 5.176 33.7669 2.776 30.5509 2.776C26.0869 2.776 22.6789 7.864 22.6789 14.056C22.6789 19.336 25.1269 21.4 27.6709 21.4C28.9669 21.4 30.0709 20.872 31.0789 20.248L31.2709 20.536C29.7349 21.592 27.7189 22.648 25.3669 22.648C21.9589 22.648 19.2229 20.44 19.2229 15.208C19.2229 7.912 24.5989 2.248 30.8389 2.248C35.3989 2.248 39.3349 5.32 39.3349 13.096C39.3349 25.336 29.1589 37.528 15.5749 37.576V37.192ZM37.0936 26.68V26.584L62.1496 2.152H62.2936L55.8616 24.52H60.7576L60.1336 26.68H55.2376L52.2616 37H48.9496L51.9256 26.68H37.0936ZM40.3576 24.568L52.5496 24.52L57.4456 7.432L40.3576 24.568ZM65.7608 13.576C67.5368 6.568 71.6168 2.248 76.8488 2.248C81.1208 2.248 84.2888 5.128 84.2888 9.448C84.2888 15.208 78.5288 21.256 66.8168 30.76L62.7368 34.072V34.168H77.6648L79.9688 31.24H80.2088L75.8408 39.544H75.6008L76.0808 37H58.3688V36.952L62.1608 33.832C74.3048 23.848 81.0248 17.992 81.0248 11.08C81.0248 6.808 78.4808 4.648 74.7848 4.648C70.2248 4.648 67.6328 8.008 66.0968 13.576H65.7608ZM90.5689 35.8L112.313 2.104H112.361L115.481 35.8L117.449 36.76V37H108.569V36.76L111.881 35.8L110.729 22.84H99.6409C92.4889 34.216 93.1129 35.56 96.9529 36.616L97.4809 36.76V37H88.0729V36.76L90.5689 35.8ZM100.025 22.264H110.681L109.385 7.624L100.985 20.728L100.025 22.264ZM126.269 18.04C127.085 15.256 126.509 14.536 125.837 14.536C124.733 14.536 123.533 16.312 121.517 19.24H121.085C123.389 15.88 125.981 12.04 128.189 12.04C129.629 12.04 130.781 13.672 129.389 18.376L125.165 32.536H125.549L128.957 25.864C133.037 17.896 136.781 12.04 140.381 12.04C142.397 12.04 143.933 13.864 142.205 19.528L139.037 29.848C137.741 34.024 138.557 34.792 139.229 34.792C140.285 34.792 141.245 33.304 143.261 30.376H143.693C141.389 33.88 138.845 37.576 136.781 37.576C135.389 37.576 133.949 35.848 135.773 29.944L139.133 19C140.189 15.592 139.325 14.536 138.221 14.536C136.253 14.536 133.853 17.464 129.437 26.104L123.869 37H120.653L126.269 18.04ZM130.349 8.68H130.589C131.213 6.904 132.173 6.232 133.229 6.232C135.389 6.232 136.781 8.968 139.229 8.968C141.149 8.968 142.685 7.24 143.597 4.408H143.357C142.733 6.184 141.821 6.904 140.717 6.904C138.509 6.904 137.165 4.168 134.717 4.168C132.845 4.168 131.309 5.752 130.349 8.68ZM144.704 30.04C144.704 20.872 152.432 12.04 158.912 12.04C161.072 12.04 161.984 13.144 161.984 14.488C161.984 17.272 158.048 20.824 148.448 23.512C148.112 25 147.92 26.584 147.92 28.216C147.92 33.112 149.888 35.032 152.576 35.032C154.928 35.032 157.088 33.208 159.632 28.024H160.016C157.04 34.216 153.776 37.576 150.176 37.576C146.96 37.576 144.704 34.984 144.704 30.04ZM148.592 22.984C156.464 20.776 159.104 17.704 159.104 15.304C159.104 13.864 158.192 13.144 156.704 13.144C153.44 13.144 149.984 17.464 148.592 22.984ZM166.194 18.04C167.01 15.304 166.434 14.536 165.762 14.536C164.658 14.536 163.458 16.312 161.442 19.24H161.01C163.314 15.88 165.906 12.04 168.114 12.04C169.554 12.04 170.754 13.624 169.362 18.376L164.37 35.464C162.834 40.888 157.314 46.6 152.85 46.6C151.026 46.6 150.162 45.64 150.162 44.536C150.162 43.72 150.642 43.096 151.074 42.664C152.034 43.816 153.522 44.92 155.49 44.92C157.362 44.92 158.706 43.912 160.242 38.584L166.194 18.04ZM168.786 6.712C168.786 5.272 169.794 4.312 171.138 4.312C172.482 4.312 173.346 5.272 173.346 6.568C173.346 8.008 172.338 8.968 170.946 8.968C169.698 8.968 168.786 8.056 168.786 6.712ZM190.649 20.248C190.649 29.464 183.785 37.576 177.017 37.576C172.985 37.576 170.633 34.552 170.633 29.176C170.633 20.104 177.689 12.04 184.361 12.04C188.105 12.04 190.649 14.872 190.649 20.248ZM173.945 29.128C173.945 34.84 176.153 36.808 178.361 36.808C183.161 36.808 187.337 29.272 187.337 20.248C187.337 14.536 185.177 12.808 183.065 12.808C178.217 12.808 173.945 20.152 173.945 29.128ZM205.505 10.504L210.977 0.0399981H211.169L210.545 2.824H231.761L232.721 0.0399981H232.961V10.504H232.721L232.577 9.784C231.617 5.032 230.129 3.352 223.937 3.352H222.641L213.377 35.8L216.833 36.76L216.785 37H205.937L206.033 36.76L210.065 35.8L219.377 3.352H218.081C211.889 3.352 209.633 5.128 206.225 9.784L205.697 10.504H205.505ZM225.892 30.04C225.892 20.872 233.62 12.04 240.1 12.04C242.26 12.04 243.172 13.144 243.172 14.488C243.172 17.272 239.236 20.824 229.636 23.512C229.3 25 229.108 26.584 229.108 28.216C229.108 33.112 231.076 35.032 233.764 35.032C236.116 35.032 238.276 33.208 240.82 28.024H241.204C238.228 34.216 234.964 37.576 231.364 37.576C228.148 37.576 225.892 34.984 225.892 30.04ZM229.78 22.984C237.652 20.776 240.292 17.704 240.292 15.304C240.292 13.864 239.38 13.144 237.892 13.144C234.628 13.144 231.172 17.464 229.78 22.984ZM248.246 34.792C250.118 34.792 251.942 31.768 256.262 23.992L260.87 15.688C259.142 14.104 257.798 12.904 256.07 12.904C251.558 12.904 245.558 21.976 245.558 30.184C245.558 33.544 246.998 34.792 248.246 34.792ZM242.342 30.904C242.342 22.264 251.366 12.04 257.51 12.04C259.478 12.04 260.918 13 263.462 14.44L264.902 12.136H265.142L255.254 46.6H252.038L259.91 19.192H259.526L256.742 24.232C252.326 32.248 249.686 37.576 246.662 37.576C244.55 37.576 242.342 35.08 242.342 30.904ZM264.757 19.24C267.061 15.88 269.653 12.04 271.861 12.04C273.301 12.04 274.597 13.672 273.061 18.376L269.173 30.184C267.973 33.832 268.837 35.08 270.085 35.08C271.957 35.08 274.213 32.152 278.629 23.512L284.197 12.616H287.413L282.277 29.848C281.029 34.024 281.701 34.792 282.469 34.792C283.429 34.792 284.485 33.304 286.501 30.376H286.933C284.629 33.88 282.037 37.576 280.021 37.576C278.629 37.576 277.189 35.848 279.013 29.896L282.901 17.08H282.517L279.109 23.752C275.029 31.72 271.573 37.576 268.021 37.576C265.861 37.576 264.181 35.464 266.101 29.656L269.941 18.04C270.805 15.4 270.181 14.536 269.509 14.536C268.405 14.536 267.205 16.312 265.189 19.24H264.757ZM288.194 19.24C290.498 15.88 293.09 12.04 295.298 12.04C296.738 12.04 297.986 13.624 296.546 18.376L293.09 29.848C291.842 34.024 292.514 34.792 293.282 34.792C294.242 34.792 295.298 33.304 297.314 30.376H297.746C295.442 33.88 292.85 37.576 290.834 37.576C289.442 37.576 288.05 35.848 289.826 29.896L293.378 18.04C294.194 15.304 293.618 14.536 292.946 14.536C291.842 14.536 290.642 16.312 288.626 19.24H288.194ZM295.874 6.712C295.874 5.272 296.882 4.312 298.226 4.312C299.57 4.312 300.434 5.272 300.434 6.568C300.434 8.008 299.426 8.968 298.034 8.968C296.786 8.968 295.874 8.056 295.874 6.712ZM299.84 29.896L307.28 3.88L304.4 3.064V2.824L311.456 0.567997H311.504L303.104 29.848C301.904 33.976 302.528 34.792 303.296 34.792C304.256 34.792 305.312 33.304 307.328 30.376H307.76C305.456 33.88 302.864 37.576 300.848 37.576C299.456 37.576 298.16 35.848 299.84 29.896ZM314.527 34.792C316.399 34.792 318.223 31.768 322.543 23.992L327.151 15.688C325.423 14.104 324.079 12.904 322.351 12.904C317.839 12.904 311.839 21.976 311.839 30.184C311.839 33.544 313.279 34.792 314.527 34.792ZM308.623 30.904C308.623 22.264 317.647 12.04 323.791 12.04C325.759 12.04 327.199 13 329.743 14.44L331.183 12.136H331.423L326.335 29.848C325.135 34.024 325.759 34.792 326.527 34.792C327.487 34.792 328.543 33.304 330.559 30.376H330.991C328.687 33.88 326.095 37.576 324.079 37.576C322.687 37.576 321.343 35.848 323.071 29.896L326.191 19.192H325.807L323.023 24.232C318.607 32.248 315.967 37.576 312.943 37.576C310.831 37.576 308.623 35.08 308.623 30.904Z" fill="#240808"/>
</svg>
